<?xml version="1.0" standalone="no"?>
<!DOCTYPE svg PUBLIC "-//W3C//DTD SVG 1.1//EN" "http://www.w3.org/Graphics/SVG/1.1/DTD/svg11.dtd" >
<svg xmlns="http://www.w3.org/2000/svg" width="100%" height="100%">
<metadata>
Created by FontXChange 20110222 at Fri Jul 22 16:02:58 2016
 By James Beall
Copyright \(c\) 2016 NextEV. All rights reserved.
</metadata>
<defs>
<font id="BlueSkyStandard-RegularItalic" horiz-adv-x="640" >
  <font-face 
    font-family="BlueSkyStandard"
    font-weight="430"
    font-stretch="normal"
    units-per-em="1000"
    panose-1="2 0 0 0 0 0 0 0 0 0"
    ascent="700"
    descent="-300"
    x-height="517"
    cap-height="700"
    bbox="-182 -261 1252 893"
    underline-thickness="50"
    underline-position="-50"
    slope="-10"
    stemh="68"
    stemv="75"
    unicode-range="U+000D-FB04"
  />
<missing-glyph horiz-adv-x="358" 
d="M335 372c0 -77 -73 -144 -147 -144c-60 0 -102 44 -102 101c0 77 72 145 146 145c60 0 103 -45 103 -102z" />
    <glyph glyph-name="fi" unicode="fi" horiz-adv-x="582" 
d="M471 0h-73l79 451h-233l-79 -451h-73l79 451h-98l12 66h98l7 37c21 113 101 177 214 177c24 0 51 -3 77 -9l-21 -67c-22 5 -41 7 -60 7c-81 0 -125 -47 -137 -109l-7 -36h306z" />
    <glyph glyph-name="fl" unicode="fl" horiz-adv-x="638" 
d="M594 62v-58c-18 -9 -48 -14 -66 -14c-65 0 -128 33 -107 150l88 500c-23 11 -57 22 -102 22c-85 0 -134 -47 -145 -109l-6 -36h140l-11 -66h-141l-79 -451h-74l80 451h-98l11 66h98l7 35c23 113 108 179 225 179c51 0 120 -15 177 -42l-97 -551c-9 -53 10 -84 54 -84
c16 0 32 3 46 8z" />
    <glyph glyph-name="ff" unicode="ff" horiz-adv-x="701" 
d="M471 0h-73l79 451h-233l-79 -451h-73l79 451h-98l12 66h98l7 37c21 113 102 177 214 177c23 0 48 -2 72 -8l-21 -67c-20 4 -37 6 -54 6c-82 0 -126 -47 -138 -109l-7 -36h233l6 37c19 113 101 177 215 177c23 0 51 -3 76 -9l-21 -67c-21 5 -41 7 -58 7
c-83 0 -128 -47 -139 -109l-6 -36h141l-12 -66h-141z" />
    <glyph glyph-name="ffi" unicode="ffi" horiz-adv-x="888" 
d="M777 0h-74l79 451h-232l-79 -451h-73l79 451h-233l-79 -451h-73l79 451h-98l12 66h98l7 37c21 113 102 177 214 177c23 0 48 -2 72 -8l-21 -67c-20 4 -37 6 -54 6c-82 0 -126 -47 -138 -109l-7 -36h233l6 37c19 113 101 177 215 177c23 0 51 -3 76 -9l-21 -67
c-21 5 -41 7 -58 7c-83 0 -128 -47 -139 -109l-6 -36h306z" />
    <glyph glyph-name="ffl" unicode="ffl" horiz-adv-x="943" 
d="M900 62v-58c-19 -9 -49 -14 -67 -14c-64 0 -128 33 -107 150l88 500c-22 11 -57 22 -102 22c-84 0 -134 -47 -145 -109l-6 -36h141l-11 -66h-141l-80 -451h-73l80 451h-232l-80 -451h-73l80 451h-99l12 66h98l7 37c20 113 103 177 215 177c22 0 47 -2 72 -8l-22 -67
c-19 4 -37 6 -54 6c-82 0 -126 -47 -138 -109l-7 -36h232l6 35c20 113 108 179 226 179c50 0 120 -15 177 -42l-98 -551c-9 -53 10 -84 56 -84c17 0 31 2 45 8z" />
    <glyph glyph-name="fj" unicode="fj" horiz-adv-x="582" 
d="M196 -248l16 68c14 -3 26 -5 44 -5c65 0 116 45 132 133l89 503h-232l-80 -451h-73l80 451h-99l12 66h98l7 37c21 113 102 177 215 177c23 0 50 -3 76 -9l-21 -67c-21 5 -41 7 -59 7c-82 0 -126 -47 -138 -109l-7 -36h306l-102 -580c-21 -118 -92 -193 -208 -193
c-18 0 -37 3 -56 8z" />
    <glyph glyph-name="ft" unicode="ft" horiz-adv-x="711" 
d="M644 74l13 -59c-34 -17 -73 -27 -107 -27c-82 0 -147 49 -124 178l51 285h-233l-79 -451h-74l80 451h-98l11 66h98l7 37c20 113 103 177 215 177c23 0 48 -2 72 -8l-21 -67c-20 4 -38 6 -54 6c-83 0 -129 -47 -139 -109l-6 -36h232l26 147h74l-27 -147h174l-11 -66h-174
l-50 -283c-14 -79 21 -112 69 -112c30 0 55 8 75 18z" />
    <glyph glyph-name=".notdef" horiz-adv-x="358" 
d="M335 372c0 -77 -73 -144 -147 -144c-60 0 -102 44 -102 101c0 77 72 145 146 145c60 0 103 -45 103 -102z" />
    <glyph glyph-name="space" unicode=" " horiz-adv-x="267" 
 />
    <glyph glyph-name="exclam" unicode="!" horiz-adv-x="246" 
d="M147 156h-55l83 544h82zM90 -9c-29 0 -48 20 -48 47c0 35 31 70 69 70c29 0 48 -21 48 -48c0 -37 -33 -69 -69 -69z" />
    <glyph glyph-name="quotedbl" unicode="&#x22;" horiz-adv-x="361" 
d="M181 464h-47l27 236h76zM329 464h-47l27 236h76z" />
    <glyph glyph-name="numbersign" unicode="#" horiz-adv-x="744" 
d="M665 186h-158l-68 -186h-68l68 186h-196l-69 -186h-68l69 186h-120l10 60h132l83 219h-149l11 60h161l65 175h66l-65 -175h198l65 175h66l-64 -175h119l-11 -60h-131l-82 -219h147zM462 246l82 219h-197l-82 -219h197z" />
    <glyph glyph-name="percent" unicode="%" horiz-adv-x="908" 
d="M242 280c-102 0 -139 64 -139 148c0 137 61 284 212 284c102 0 139 -64 139 -147c0 -142 -62 -285 -212 -285zM251 336c88 0 138 97 138 220c0 60 -22 99 -81 99c-92 0 -141 -101 -141 -219c0 -61 23 -100 84 -100zM271 0h-68l498 700h67zM656 -12
c-103 0 -141 64 -141 148c0 137 63 284 213 284c102 0 140 -65 140 -148c0 -142 -63 -284 -212 -284zM664 44c87 0 139 97 139 219c0 61 -23 100 -82 100c-91 0 -141 -101 -141 -219c0 -61 23 -100 84 -100z" />
    <glyph glyph-name="ampersand" unicode="&#x26;" horiz-adv-x="710" 
d="M669 40l-54 -50l-100 104c-63 -59 -148 -106 -249 -106c-128 0 -213 71 -213 184c0 87 68 180 178 210c-24 26 -55 77 -55 134c0 93 87 196 240 196c74 0 141 -30 191 -78l-39 -56c-38 37 -92 67 -155 67c-102 0 -161 -65 -161 -130c0 -47 28 -84 69 -126l201 -202
c40 57 58 123 58 182h65c0 -67 -30 -153 -80 -223zM473 134l-204 206c-89 -22 -141 -96 -141 -161c0 -78 59 -126 149 -126c85 0 149 36 196 81z" />
    <glyph glyph-name="quotesingle" unicode="'" horiz-adv-x="213" 
d="M181 464h-47l28 236h76z" />
    <glyph glyph-name="parenleft" unicode="(" horiz-adv-x="372" 
d="M276 -155l-47 -51c-103 62 -163 175 -163 340c0 230 98 452 321 556l32 -54c-201 -112 -276 -292 -276 -503c0 -124 40 -220 133 -288z" />
    <glyph glyph-name="parenright" unicode=")" horiz-adv-x="372" 
d="M10 -206l-32 54c200 112 276 292 276 503c0 124 -40 220 -133 288l46 51c103 -62 164 -175 164 -340c0 -230 -98 -452 -321 -556z" />
    <glyph glyph-name="asterisk" unicode="*" horiz-adv-x="450" 
d="M414 368l-49 -33l-88 135l-135 -135l-38 33l134 132l-130 56l29 49l127 -57l27 152h54l-27 -152l148 57l10 -49l-149 -56z" />
    <glyph glyph-name="plus" unicode="+" horiz-adv-x="530" 
d="M506 297h-187l-33 -187h-63l33 187h-188l11 63h188l33 188h63l-33 -188h187z" />
    <glyph glyph-name="comma" unicode="," horiz-adv-x="210" 
d="M0 -119l8 46c39 9 62 40 67 68c-27 2 -51 18 -51 49c0 32 28 63 65 63c32 0 52 -22 52 -57c0 -62 -50 -157 -141 -169z" />
    <glyph glyph-name="hyphen" unicode="-" horiz-adv-x="407" 
d="M388 295h-325l12 67h324z" />
    <glyph glyph-name="period" unicode="." horiz-adv-x="210" 
d="M73 -9c-29 0 -48 20 -48 47c0 35 31 70 69 70c29 0 48 -21 48 -48c0 -37 -34 -69 -69 -69z" />
    <glyph glyph-name="slash" unicode="/" horiz-adv-x="460" 
d="M65 0h-74l464 700h76z" />
    <glyph glyph-name="zero" unicode="0" horiz-adv-x="597" 
d="M273 55c184 0 238 272 238 425c0 98 -36 167 -128 167c-179 0 -232 -275 -232 -425c0 -98 32 -167 122 -167zM269 -12c-140 0 -192 99 -192 230c0 181 73 494 316 494c138 0 192 -99 192 -229c0 -194 -78 -495 -316 -495z" />
    <glyph glyph-name="one" unicode="1" horiz-adv-x="450" 
d="M386 0h-370l13 66h155l98 556l-166 -66l12 73l192 75h49l-113 -638h142z" />
    <glyph glyph-name="two" unicode="2" horiz-adv-x="575" 
d="M486 0h-458l12 57c25 129 135 197 260 262c111 59 203 113 203 216c0 58 -47 108 -123 108c-65 0 -131 -29 -190 -73l-33 55c65 50 145 87 229 87c112 0 193 -69 193 -167c0 -148 -136 -221 -244 -281c-96 -53 -197 -106 -216 -196h379z" />
    <glyph glyph-name="three" unicode="3" horiz-adv-x="574" 
d="M28 77l38 56c53 -51 122 -77 185 -77c95 0 202 66 202 180c0 57 -42 117 -165 117h-60l-10 45l253 234h-303l13 68h403l-10 -55l-259 -236c2 0 12 -1 23 -2c127 -6 190 -77 190 -163c0 -152 -136 -253 -282 -253c-80 0 -157 28 -218 86z" />
    <glyph glyph-name="four" unicode="4" horiz-adv-x="603" 
d="M438 0h-73l31 177h-341l-6 61l342 476h85l-340 -470h272l47 267h73l-48 -267h106l-12 -67h-105z" />
    <glyph glyph-name="five" unicode="5" horiz-adv-x="575" 
d="M27 76l39 57c53 -52 122 -79 190 -79c90 0 204 68 204 189c0 88 -81 124 -183 124c-43 0 -86 -5 -127 -13l-25 33l85 313h375l-12 -67h-310l-58 -210c32 5 66 8 94 8c125 0 236 -49 236 -179c0 -149 -128 -264 -282 -264c-96 0 -172 35 -226 88z" />
    <glyph glyph-name="six" unicode="6" horiz-adv-x="604" 
d="M577 699l-22 -65c-23 7 -48 12 -89 12c-141 0 -253 -126 -294 -255c46 36 125 69 208 69c111 0 188 -70 188 -179c0 -171 -139 -293 -283 -293c-150 0 -212 116 -212 249c0 211 147 475 396 475c46 0 84 -6 108 -13zM154 308c-6 -31 -8 -58 -8 -78
c0 -127 71 -176 143 -176c114 0 207 106 207 221c0 73 -52 120 -130 120c-105 0 -179 -56 -212 -87z" />
    <glyph glyph-name="seven" unicode="7" horiz-adv-x="531" 
d="M168 0h-79l397 633h-364l11 67h449l-5 -39z" />
    <glyph glyph-name="eight" unicode="8" horiz-adv-x="595" 
d="M428 369c83 -26 122 -86 122 -153c0 -143 -128 -228 -274 -228c-135 0 -224 61 -224 170c0 87 64 178 185 217c-70 34 -96 87 -96 136c0 123 113 201 247 201c116 0 194 -58 194 -150c0 -63 -38 -144 -154 -193zM328 343c-108 -12 -200 -87 -200 -177
c0 -69 57 -112 149 -112c107 0 198 62 198 157c0 68 -64 122 -147 132zM336 394c83 20 172 71 172 158c0 61 -56 95 -127 95c-84 0 -166 -47 -166 -134c0 -62 56 -100 121 -119z" />
    <glyph glyph-name="nine" unicode="9" horiz-adv-x="604" 
d="M88 0l22 66c23 -7 48 -12 90 -12c140 0 253 126 293 255c-46 -36 -125 -69 -208 -69c-111 0 -188 69 -188 179c0 171 139 293 283 293c150 0 213 -117 213 -250c0 -210 -148 -474 -397 -474c-46 0 -83 5 -108 12zM511 392c6 31 8 58 8 78c0 126 -70 176 -143 176
c-114 0 -206 -106 -206 -222c0 -72 51 -119 129 -119c105 0 179 56 212 87z" />
    <glyph glyph-name="colon" unicode=":" horiz-adv-x="238" 
d="M156 59c0 -36 -34 -68 -69 -68c-29 0 -49 20 -49 47c0 37 33 70 70 70c28 0 48 -21 48 -49zM230 475c0 -37 -34 -69 -70 -69c-28 0 -48 20 -48 47c0 37 33 70 69 70c29 0 49 -21 49 -48z" />
    <glyph glyph-name="semicolon" unicode=";" horiz-adv-x="238" 
d="M161 406c-29 0 -49 20 -49 48c0 36 32 69 69 69c29 0 48 -21 48 -48c0 -37 -33 -69 -68 -69zM15 -119l7 46c39 9 62 39 67 67c-26 1 -50 17 -50 48c0 33 29 65 66 65c31 0 50 -21 50 -56c0 -62 -53 -158 -140 -170z" />
    <glyph glyph-name="less" unicode="&#x3c;" horiz-adv-x="517" 
d="M458 136l-387 174l12 72l450 174l-14 -74l-379 -139l330 -139z" />
    <glyph glyph-name="equal" unicode="=" horiz-adv-x="543" 
d="M499 203h-438l11 64h438zM532 391h-438l11 64h438z" />
    <glyph glyph-name="greater" unicode="&#x3e;" horiz-adv-x="517" 
d="M495 310l-450 -174l14 75l379 139l-330 139l11 67l388 -174z" />
    <glyph glyph-name="question" unicode="?" horiz-adv-x="486" 
d="M225 182h-73l27 163c132 6 243 81 243 189c0 65 -45 110 -120 110c-58 0 -120 -29 -169 -66l-31 57c53 39 129 77 214 77c118 0 182 -78 182 -166c0 -122 -101 -229 -252 -251zM156 -9c-29 0 -48 20 -48 47c0 35 31 70 69 70c29 0 48 -21 48 -48c0 -37 -34 -69 -69 -69z
" />
    <glyph glyph-name="at" unicode="@" horiz-adv-x="1032" 
d="M765 -50l24 -47c-61 -47 -182 -101 -338 -101c-212 0 -380 165 -380 381c0 296 264 529 545 529c212 0 383 -130 383 -335c0 -141 -74 -340 -238 -340c-59 0 -97 34 -102 88c-54 -54 -126 -81 -180 -81c-109 0 -167 80 -167 177c0 127 104 258 242 258
c56 0 109 -24 144 -76l12 66h61l-50 -288c-8 -46 -1 -91 49 -91c120 0 168 187 168 279c0 168 -128 286 -332 286c-270 0 -473 -235 -473 -463c0 -184 133 -333 326 -333c141 0 237 45 306 91zM658 192l23 134c-16 46 -59 95 -132 95c-100 0 -171 -95 -171 -195
c0 -70 37 -123 111 -123c71 0 132 43 169 89z" />
    <glyph glyph-name="A" unicode="A" horiz-adv-x="679" 
d="M634 0h-75l-41 185h-349l-104 -185h-80l409 702h79zM505 251l-83 372l-215 -372h298z" />
    <glyph glyph-name="B" unicode="B" horiz-adv-x="611" 
d="M313 0h-252l123 700h237c109 0 170 -60 170 -148c0 -78 -46 -152 -120 -192c69 -21 103 -75 103 -134c0 -108 -91 -226 -261 -226zM148 68h173c110 0 175 74 175 151c0 58 -43 100 -140 100h-164zM204 385h156c87 0 154 75 154 150c0 53 -34 97 -111 97h-156z" />
    <glyph glyph-name="C" unicode="C" horiz-adv-x="688" 
d="M625 165l34 -57c-51 -54 -166 -120 -291 -120c-197 0 -304 135 -304 304c0 203 166 420 418 420c108 0 184 -42 232 -94l-48 -57c-49 54 -121 80 -192 80c-189 0 -332 -177 -332 -344c0 -128 78 -238 224 -238c117 0 205 50 259 106z" />
    <glyph glyph-name="D" unicode="D" horiz-adv-x="696" 
d="M289 0h-228l123 700h220c196 0 290 -130 290 -278c0 -204 -161 -422 -405 -422zM148 68h145c180 0 324 158 324 350c0 119 -77 214 -214 214h-156z" />
    <glyph glyph-name="E" unicode="E" horiz-adv-x="575" 
d="M494 0h-433l123 700h433l-12 -68h-358l-41 -234h292l-12 -68h-292l-46 -262h358z" />
    <glyph glyph-name="F" unicode="F" horiz-adv-x="566" 
d="M473 307h-283l-54 -307h-75l123 700h424l-12 -68h-349l-45 -257h283z" />
    <glyph glyph-name="G" unicode="G" horiz-adv-x="754" 
d="M611 145l28 158h-218l11 65h290l-46 -259c-66 -58 -169 -121 -305 -121c-194 0 -307 135 -307 304c0 203 167 420 419 420c100 0 185 -32 251 -97l-53 -57c-50 52 -126 83 -206 83c-190 0 -333 -177 -333 -344c0 -128 75 -239 231 -239c102 0 185 42 238 87z" />
    <glyph glyph-name="H" unicode="H" horiz-adv-x="749" 
d="M628 0h-75l60 345h-418l-60 -345h-74l123 700h74l-50 -287h418l50 287h75z" />
    <glyph glyph-name="I" unicode="I" horiz-adv-x="257" 
d="M136 0h-75l123 700h75z" />
    <glyph glyph-name="J" unicode="J" horiz-adv-x="487" 
d="M329 185l91 515h74l-91 -518c-25 -144 -139 -194 -226 -194c-70 0 -132 26 -175 99l52 42c27 -50 78 -74 128 -74c59 0 130 36 147 130z" />
    <glyph glyph-name="K" unicode="K" horiz-adv-x="608" 
d="M136 0h-75l123 700h75zM581 0h-93l-264 344l349 356h99l-358 -356z" />
    <glyph glyph-name="L" unicode="L" horiz-adv-x="488" 
d="M433 0h-372l123 700h75l-112 -632h298z" />
    <glyph glyph-name="M" unicode="M" horiz-adv-x="851" 
d="M730 0h-75l98 560l-332 -432l-187 438l-99 -566h-74l123 700h70l185 -439l339 439h75z" />
    <glyph glyph-name="N" unicode="N" horiz-adv-x="765" 
d="M644 0h-66l-341 579l-102 -579h-74l123 700h62l344 -585l103 585h74z" />
    <glyph glyph-name="O" unicode="O" horiz-adv-x="777" 
d="M356 -12c-183 0 -293 120 -293 290c0 220 175 434 420 434c183 0 293 -120 293 -290c0 -220 -175 -434 -420 -434zM368 57c181 0 330 169 330 359c0 139 -84 226 -226 226c-182 0 -331 -168 -331 -358c0 -139 84 -227 227 -227z" />
    <glyph glyph-name="P" unicode="P" horiz-adv-x="587" 
d="M193 329h122c153 0 217 99 217 184c0 68 -48 119 -160 119h-126zM136 0h-75l123 700h209c134 0 214 -76 214 -178c0 -155 -127 -262 -291 -262h-135z" />
    <glyph glyph-name="Q" unicode="Q" horiz-adv-x="778" 
d="M679 26l-56 -45l-53 68c-62 -38 -135 -61 -214 -61c-183 0 -293 120 -293 290c0 220 175 434 420 434c183 0 293 -120 293 -290c0 -125 -56 -247 -150 -330zM528 104l-96 123l55 45l96 -123c70 66 115 163 115 267c0 139 -84 226 -226 226c-182 0 -331 -168 -331 -358
c0 -139 84 -227 227 -227c57 0 112 17 160 47z" />
    <glyph glyph-name="R" unicode="R" horiz-adv-x="627" 
d="M568 0h-82l-131 289h-168l-51 -289h-75l123 700h240c132 0 204 -73 204 -173c0 -113 -88 -200 -199 -227zM199 356h154c140 0 198 92 198 163c0 63 -35 113 -141 113h-163z" />
    <glyph glyph-name="S" unicode="S" horiz-adv-x="541" 
d="M18 70l44 61c48 -43 123 -73 194 -73c97 0 175 58 175 136c0 154 -319 123 -319 327c0 103 95 191 232 191c90 0 161 -36 210 -83l-50 -55c-45 44 -100 69 -164 69c-98 0 -152 -63 -152 -120c0 -146 319 -127 319 -318c0 -110 -96 -217 -252 -217c-78 0 -168 23 -237 82z
" />
    <glyph glyph-name="T" unicode="T" horiz-adv-x="555" 
d="M285 0h-75l111 632h-216l12 68h507l-13 -68h-215z" />
    <glyph glyph-name="U" unicode="U" horiz-adv-x="728" 
d="M588 269l76 431h76l-78 -438c-31 -175 -157 -274 -321 -274c-163 0 -273 108 -243 280l76 432h76l-77 -431c-21 -117 35 -213 171 -213c132 0 221 85 244 213z" />
    <glyph glyph-name="V" unicode="V" horiz-adv-x="651" 
d="M334 -2h-79l-144 702h77l121 -620l335 620h82z" />
    <glyph glyph-name="W" unicode="W" horiz-adv-x="1016" 
d="M739 -7h-80l-81 584l-287 -584h-77l-91 707h76l71 -617l297 617h65l82 -618l285 618h79z" />
    <glyph glyph-name="X" unicode="X" horiz-adv-x="607" 
d="M548 0h-78l-142 303l-241 -303h-90l299 364l-158 336h78l131 -284l221 284h86l-274 -344z" />
    <glyph glyph-name="Y" unicode="Y" horiz-adv-x="588" 
d="M301 0h-75l51 293l-171 407h82l136 -338l255 338h89l-317 -408z" />
    <glyph glyph-name="Z" unicode="Z" horiz-adv-x="603" 
d="M538 0h-524v23l493 609h-378l12 68h498l-1 -23l-498 -609h409z" />
    <glyph glyph-name="bracketleft" unicode="[" horiz-adv-x="357" 
d="M259 -212h-225l160 912h225l-12 -67h-154l-137 -778h154z" />
    <glyph glyph-name="backslash" unicode="\" horiz-adv-x="460" 
d="M409 0h-75l-220 700h76z" />
    <glyph glyph-name="bracketright" unicode="]" horiz-adv-x="357" 
d="M195 -212h-223l11 67h153l137 778h-154l12 67h224z" />
    <glyph glyph-name="asciicircum" unicode="^" horiz-adv-x="400" 
d="M412 419h-62l-64 223l-142 -223h-69l185 281h66z" />
    <glyph glyph-name="underscore" unicode="_" horiz-adv-x="471" 
d="M429 -61h-470l11 61h471z" />
    <glyph glyph-name="grave" unicode="`" horiz-adv-x="531" 
d="M401 583h-64l-104 147h102z" />
    <glyph glyph-name="b" unicode="b" horiz-adv-x="645" 
d="M120 0h-69l123 700h73l-46 -259c56 56 133 91 211 91c138 0 208 -96 208 -219c0 -154 -116 -325 -296 -325c-75 0 -143 26 -189 92zM186 351l-32 -183c24 -58 80 -112 170 -112c123 0 220 127 220 252c0 87 -48 156 -149 156c-86 0 -159 -55 -209 -113z" />
    <glyph glyph-name="c" unicode="c" horiz-adv-x="560" 
d="M475 133l38 -50c-47 -47 -131 -95 -227 -95c-144 0 -231 94 -231 233c0 172 144 311 313 311c70 0 141 -24 189 -72l-47 -58c-39 37 -91 61 -151 61c-110 0 -228 -102 -228 -238c0 -109 68 -168 161 -168c83 0 146 41 183 76z" />
    <glyph glyph-name="d" unicode="d" horiz-adv-x="645" 
d="M533 0h-69l13 80c-63 -58 -138 -92 -219 -92c-136 0 -204 96 -204 217c0 154 114 327 301 327c72 0 138 -26 184 -91l46 259h72zM490 168l32 183c-25 58 -82 113 -170 113c-126 0 -222 -127 -222 -250c0 -90 49 -158 143 -158c85 0 169 55 217 112z" />
    <glyph glyph-name="e" unicode="e" horiz-adv-x="573" 
d="M462 126l36 -53c-49 -46 -125 -85 -216 -85c-144 0 -228 93 -228 226c0 168 131 318 303 318c129 0 200 -83 200 -201c0 -28 -3 -58 -10 -88h-416c-13 -113 53 -186 155 -186c82 0 137 31 176 69zM145 305h339c1 6 1 18 1 27c0 75 -47 135 -132 135
c-100 0 -188 -79 -208 -162z" />
    <glyph glyph-name="f" unicode="f" horiz-adv-x="395" 
d="M165 0h-73l79 451h-98l12 66h98l7 37c20 113 101 177 214 177c24 0 51 -3 77 -9l-21 -67c-21 5 -40 7 -60 7c-81 0 -127 -47 -137 -109l-6 -36h140l-12 -66h-140z" />
    <glyph glyph-name="g" unicode="g" horiz-adv-x="645" 
d="M459 -9l15 86c-62 -56 -130 -89 -211 -89c-138 0 -208 95 -208 219c0 156 122 325 300 325c73 0 139 -26 186 -93l14 78h69l-94 -529c-31 -175 -169 -249 -291 -249c-81 0 -154 30 -211 79l41 58c43 -38 98 -68 182 -68c87 0 188 65 208 183zM490 168l31 183
c-24 58 -80 113 -169 113c-124 0 -221 -128 -221 -251c0 -89 50 -157 151 -157c89 0 158 54 208 112z" />
    <glyph glyph-name="h" unicode="h" 
d="M538 0h-73l52 292c21 119 -40 171 -121 171c-75 0 -158 -53 -211 -113l-61 -350h-74l123 700h74l-46 -260c50 47 126 92 212 92c108 0 208 -65 177 -241z" />
    <glyph glyph-name="i" unicode="i" horiz-adv-x="233" 
d="M193 606c-27 0 -46 21 -46 46c0 32 31 64 66 64c26 0 44 -20 44 -46c0 -33 -32 -64 -64 -64zM123 0h-73l91 517h73z" />
    <glyph glyph-name="j" unicode="j" horiz-adv-x="271" 
d="M-115 -248l17 68c13 -3 25 -5 43 -5c65 0 117 45 132 133l101 569h73l-102 -580c-21 -118 -92 -193 -208 -193c-18 0 -36 3 -56 8zM230 606c-27 0 -46 21 -46 46c0 32 30 64 65 64c26 0 45 -20 45 -46c0 -33 -32 -64 -64 -64z" />
    <glyph glyph-name="k" unicode="k" horiz-adv-x="545" 
d="M124 0h-73l123 700h73zM500 0h-89l-215 265l274 252h97l-281 -257z" />
    <glyph glyph-name="l" unicode="l" horiz-adv-x="295" 
d="M248 62l1 -58c-18 -9 -49 -14 -66 -14c-65 0 -128 33 -108 150l99 560h73l-99 -562c-9 -53 10 -84 52 -84c17 0 35 2 48 8z" />
    <glyph glyph-name="m" unicode="m" horiz-adv-x="1006" 
d="M905 0h-73l52 293c21 119 -35 170 -110 170c-78 0 -148 -48 -198 -113l-61 -350h-73l51 293c21 119 -35 170 -118 170c-70 0 -140 -48 -189 -113l-61 -350h-74l91 517h68l-14 -80c52 55 123 95 205 95c72 0 141 -33 164 -113c60 65 137 113 221 113
c109 0 201 -67 171 -236z" />
    <glyph glyph-name="n" unicode="n" 
d="M538 0h-73l52 292c21 119 -40 171 -121 171c-75 0 -156 -51 -210 -112l-62 -351h-73l91 517h69l-14 -80c51 49 129 95 216 95c108 0 208 -65 177 -241z" />
    <glyph glyph-name="o" unicode="o" horiz-adv-x="615" 
d="M589 305c0 -158 -130 -317 -319 -317c-116 0 -215 81 -215 227c0 157 130 317 319 317c116 0 215 -81 215 -227zM282 57c128 0 232 120 232 241c0 100 -64 165 -152 165c-128 0 -232 -121 -232 -241c0 -101 64 -165 152 -165z" />
    <glyph glyph-name="p" unicode="p" horiz-adv-x="646" 
d="M81 -235h-72l133 752h70l-15 -78c59 57 134 93 216 93c134 0 206 -93 206 -219c0 -157 -121 -325 -300 -325c-72 0 -138 26 -183 90zM185 351l-32 -183c25 -58 81 -112 170 -112c124 0 220 128 220 251c0 87 -49 157 -150 157c-86 0 -159 -55 -208 -113z" />
    <glyph glyph-name="q" unicode="q" horiz-adv-x="645" 
d="M492 -235h-74l57 313c-62 -56 -133 -90 -213 -90c-137 0 -207 95 -207 220c0 150 116 324 300 324c73 0 139 -26 186 -92l14 78h70zM490 168l32 183c-25 58 -81 113 -170 113c-124 0 -221 -127 -221 -250c0 -89 49 -158 149 -158c90 0 160 54 210 112z" />
    <glyph glyph-name="r" unicode="r" horiz-adv-x="366" 
d="M124 0h-73l91 517h68l-18 -102c53 76 128 112 194 112c7 0 16 0 25 -1l-13 -73c-6 1 -14 1 -21 1c-87 0 -159 -67 -198 -141z" />
    <glyph glyph-name="s" unicode="s" horiz-adv-x="472" 
d="M31 36l28 63c45 -31 99 -47 153 -47c85 0 142 41 142 94c0 60 -72 75 -137 94c-52 16 -137 50 -137 142c0 88 79 150 194 150c66 0 132 -21 180 -57l-36 -56c-39 27 -87 49 -147 49c-75 0 -117 -35 -117 -80c0 -57 68 -76 136 -96c75 -21 139 -55 139 -135
c0 -99 -96 -169 -220 -169c-62 0 -133 17 -178 48z" />
    <glyph glyph-name="t" unicode="t" horiz-adv-x="398" 
d="M329 76l13 -61c-33 -17 -69 -27 -108 -27c-81 0 -146 48 -123 177l51 286h-90l12 66h90l26 147h73l-26 -147h174l-12 -66h-174l-50 -284c-14 -79 18 -111 64 -111c33 0 61 11 80 20z" />
    <glyph glyph-name="u" unicode="u" 
d="M529 0h-72l14 79c-50 -46 -127 -91 -212 -91c-108 0 -209 65 -178 241l51 288h73l-50 -288c-21 -121 43 -171 122 -171c73 0 156 49 209 110l61 349h73z" />
    <glyph glyph-name="v" unicode="v" horiz-adv-x="528" 
d="M268 -4h-69l-127 521h78l96 -431l247 431h85z" />
    <glyph glyph-name="w" unicode="w" horiz-adv-x="828" 
d="M601 -2h-84l-62 396l-196 -396h-84l-98 519h78l75 -435l215 435h61l65 -435l219 435h80z" />
    <glyph glyph-name="x" unicode="x" horiz-adv-x="522" 
d="M483 0h-85l-124 218l-199 -218h-94l252 273l-145 244h86l112 -197l180 197h93l-232 -250z" />
    <glyph glyph-name="y" unicode="y" horiz-adv-x="519" 
d="M154 -81l47 79l-128 519h79l97 -430l238 430h82l-348 -608c-60 -104 -121 -159 -198 -159c-20 0 -42 4 -64 11l30 69c15 -5 31 -8 45 -8c45 0 84 35 120 97z" />
    <glyph glyph-name="z" unicode="z" horiz-adv-x="533" 
d="M461 0h-452l1 16l385 435h-289l12 66h415l-2 -17l-386 -433h327z" />
    <glyph glyph-name="braceleft" unicode="{" horiz-adv-x="393" 
d="M278 -214h-38c-89 0 -164 33 -164 135c0 79 42 156 42 236c0 35 -14 58 -56 58l9 55c61 0 81 51 90 123l16 120c19 144 123 187 225 187h38l-12 -67h-36c-74 0 -129 -25 -142 -132l-15 -118c-11 -82 -45 -125 -86 -140c29 -13 43 -40 43 -83c0 -72 -41 -156 -41 -235
c0 -55 43 -72 104 -72h36z" />
    <glyph glyph-name="bar" unicode="|" horiz-adv-x="259" 
d="M88 -250h-66l166 950h67z" />
    <glyph glyph-name="braceright" unicode="}" horiz-adv-x="393" 
d="M15 -214h-38l13 67h36c73 0 128 25 142 132l15 117c10 83 44 125 85 141c-28 12 -43 40 -43 82c0 73 42 157 42 235c0 56 -43 73 -104 73h-36l12 67h38c89 0 164 -33 164 -135c0 -79 -41 -157 -41 -236c0 -35 13 -59 56 -59l-10 -55c-61 0 -80 -50 -90 -123l-16 -120
c-19 -143 -122 -186 -225 -186z" />
    <glyph glyph-name="dagger" unicode="&#x2020;" horiz-adv-x="476" 
d="M215 -158h-67l108 613h-165l11 62h165l34 195h67l-34 -195h162l-11 -62h-162z" />
    <glyph glyph-name="sterling" unicode="&#xa3;" horiz-adv-x="591" 
d="M516 86l11 -60c-40 -30 -92 -38 -147 -38c-78 0 -174 14 -264 14c-33 0 -68 -2 -99 -8l10 64c72 -1 159 57 163 189c1 20 0 41 -2 64h-106l12 65h88c-3 25 -5 42 -5 71c0 179 118 265 235 265c86 0 139 -27 186 -60l-33 -57c-35 27 -89 51 -151 51
c-117 0 -165 -104 -165 -198c0 -34 2 -49 4 -72h230l-11 -65h-211c1 -25 2 -47 1 -67c-4 -110 -65 -162 -87 -181c16 1 32 1 41 1c53 0 116 -11 171 -11c48 0 94 10 129 33z" />
    <glyph glyph-name="section" unicode="&#xa7;" horiz-adv-x="589" 
d="M-1 -173l39 67c50 -41 128 -71 196 -71c102 0 179 68 179 141c0 59 -50 82 -114 104c-92 31 -221 58 -221 181c0 70 44 124 96 155c-28 30 -44 67 -44 110c0 110 102 196 243 196c87 0 164 -32 214 -76l-42 -59c-45 41 -111 67 -176 67c-94 0 -163 -54 -163 -122
c0 -76 88 -98 179 -136c76 -31 156 -64 156 -155c0 -66 -43 -125 -86 -162c20 -19 36 -50 36 -96c0 -119 -108 -219 -262 -219c-84 0 -165 31 -230 75zM402 106c39 33 60 76 60 110c0 44 -34 70 -82 92c-40 19 -97 37 -145 57c-51 -22 -79 -70 -79 -109
c0 -61 69 -87 141 -111c61 -20 82 -28 105 -39z" />
    <glyph glyph-name="bullet" unicode="&#x2022;" horiz-adv-x="358" 
d="M335 372c0 -77 -73 -144 -147 -144c-60 0 -102 44 -102 101c0 77 72 145 146 145c60 0 103 -45 103 -102z" />
    <glyph glyph-name="paragraph" unicode="&#xb6;" horiz-adv-x="664" 
d="M498 -177h-66l144 814h-130l-144 -814h-67l88 496h-37c-111 0 -185 71 -185 163c0 127 108 218 242 218h386l-11 -63h-76zM334 382l45 255h-38c-73 0 -168 -42 -168 -151c0 -73 61 -104 123 -104h38z" />
    <glyph glyph-name="approxequal" unicode="&#x2248;" horiz-adv-x="541" 
d="M454 307l54 -17c-21 -76 -74 -119 -137 -119c-49 0 -82 28 -109 55c-24 25 -42 39 -70 39c-36 0 -65 -25 -82 -78l-55 16c24 75 74 120 137 120c50 0 82 -29 108 -55c25 -25 43 -39 70 -39c36 0 67 24 84 78zM486 496l55 -17c-22 -76 -75 -119 -138 -119
c-49 0 -82 28 -108 55c-25 25 -43 39 -71 39c-36 0 -64 -25 -82 -79l-54 17c23 75 73 119 137 119c49 0 81 -28 107 -54c25 -26 43 -39 71 -39c35 0 66 24 83 78z" />
    <glyph glyph-name="guillemotleft" unicode="&#xab;" horiz-adv-x="615" 
d="M299 92l-51 -39l-186 217l263 218l42 -46l-218 -178zM550 92l-51 -39l-186 217l263 218l42 -46l-219 -178z" />
    <glyph glyph-name="guillemotright" unicode="&#xbb;" horiz-adv-x="615" 
d="M587 270l-263 -217l-42 45l218 178l-151 172l52 40zM336 270l-263 -217l-42 45l218 178l-150 172l51 40z" />
    <glyph glyph-name="ellipsis" unicode="&#x2026;" horiz-adv-x="704" 
d="M141 58c0 -36 -34 -68 -70 -68c-28 0 -47 21 -47 48c0 34 32 68 68 68c29 0 49 -20 49 -48zM387 58c0 -36 -34 -68 -70 -68c-28 0 -47 21 -47 48c0 34 32 68 68 68c29 0 49 -20 49 -48zM636 58c0 -36 -34 -68 -69 -68c-29 0 -48 21 -48 48c0 34 33 68 69 68
c28 0 48 -20 48 -48z" />
    <glyph glyph-name="endash" unicode="&#x2013;" horiz-adv-x="543" 
d="M523 291h-461l12 67h461z" />
    <glyph glyph-name="emdash" unicode="&#x2014;" horiz-adv-x="881" 
d="M860 291h-798l12 67h798z" />
    <glyph glyph-name="quotedblleft" unicode="&#x201c;" horiz-adv-x="376" 
d="M422 723l-8 -47c-38 -8 -62 -40 -67 -67c27 -2 51 -18 51 -49c0 -32 -28 -63 -65 -63c-32 0 -52 22 -52 57c0 62 50 157 141 169zM255 723l-8 -47c-39 -8 -62 -40 -67 -67c27 -2 51 -18 51 -49c0 -32 -28 -63 -65 -63c-32 0 -52 22 -52 57c0 62 50 157 141 169z" />
    <glyph glyph-name="quotedblright" unicode="&#x201d;" horiz-adv-x="376" 
d="M274 491l8 47c39 8 62 40 67 67c-27 2 -51 18 -51 49c0 32 28 63 65 63c32 0 52 -22 52 -57c0 -62 -50 -157 -141 -169zM107 491l8 47c38 8 62 40 67 67c-27 2 -51 18 -51 49c0 32 28 63 65 63c32 0 52 -22 52 -57c0 -62 -50 -157 -141 -169z" />
    <glyph glyph-name="quoteleft" unicode="&#x2018;" horiz-adv-x="209" 
d="M255 723l-8 -47c-39 -8 -62 -40 -67 -67c27 -2 51 -18 51 -49c0 -32 -28 -63 -65 -63c-32 0 -52 22 -52 57c0 62 50 157 141 169z" />
    <glyph glyph-name="quoteright" unicode="&#x2019;" horiz-adv-x="209" 
d="M107 491l8 47c38 8 62 40 67 67c-27 2 -51 18 -51 49c0 32 28 63 65 63c32 0 52 -22 52 -57c0 -62 -50 -157 -141 -169z" />
    <glyph glyph-name="divide" unicode="&#xf7;" horiz-adv-x="530" 
d="M255 108c-24 0 -40 18 -40 41c0 29 28 55 57 55c22 0 39 -17 39 -40c0 -29 -28 -56 -56 -56zM506 297h-438l12 63h438zM316 453c-24 0 -40 18 -40 40c0 29 28 56 57 56c22 0 39 -17 39 -40c0 -29 -28 -56 -56 -56z" />
    <glyph glyph-name="fraction" unicode="&#x2044;" horiz-adv-x="223" 
d="M-69 0h-74l499 700h75z" />
    <glyph glyph-name="guilsinglleft" unicode="&#x2039;" horiz-adv-x="357" 
d="M296 92l-52 -39l-186 217l263 218l42 -46l-218 -178z" />
    <glyph glyph-name="guilsinglright" unicode="&#x203a;" horiz-adv-x="357" 
d="M332 270l-263 -217l-42 45l219 178l-151 172l51 40z" />
    <glyph glyph-name="daggerdbl" unicode="&#x2021;" horiz-adv-x="489" 
d="M221 -158h-67l61 347h-165l11 61h165l36 205h-165l11 62h165l35 195h67l-35 -195h162l-11 -62h-162l-36 -205h162l-11 -61h-162z" />
    <glyph glyph-name="periodcentered" unicode="&#xb7;" horiz-adv-x="223" 
d="M190 292c-6 -32 -36 -58 -68 -58s-53 26 -47 58s35 58 68 58c31 0 53 -26 47 -58z" />
    <glyph glyph-name="quotesinglbase" unicode="&#x201a;" horiz-adv-x="209" 
d="M-1 -120l8 47c39 8 62 40 67 67c-27 2 -51 18 -51 49c0 32 28 63 65 63c32 0 52 -22 52 -57c0 -62 -50 -157 -141 -169z" />
    <glyph glyph-name="quotedblbase" unicode="&#x201e;" horiz-adv-x="376" 
d="M-1 -120l8 47c38 8 62 40 67 67c-27 2 -51 18 -51 49c0 32 28 63 65 63c32 0 52 -22 52 -57c0 -62 -50 -157 -141 -169zM166 -120l8 47c39 8 62 40 67 67c-27 2 -51 18 -51 49c0 32 28 63 65 63c32 0 52 -22 52 -57c0 -62 -50 -157 -141 -169z" />
    <glyph glyph-name="perthousand" unicode="&#x2030;" horiz-adv-x="1291" 
d="M243 280c-102 0 -140 64 -140 148c0 137 62 284 212 284c103 0 140 -64 140 -147c0 -142 -62 -285 -212 -285zM252 336c88 0 138 97 138 220c0 60 -22 99 -81 99c-92 0 -141 -101 -141 -219c0 -61 23 -100 84 -100zM272 0h-68l498 700h67zM656 -12
c-103 0 -140 64 -140 148c0 137 63 284 213 284c102 0 139 -65 139 -148c0 -142 -62 -284 -212 -284zM664 44c88 0 139 97 139 219c0 61 -22 100 -81 100c-92 0 -141 -101 -141 -219c0 -61 23 -100 83 -100zM1040 -12c-103 0 -141 64 -141 148c0 137 63 284 213 284
c102 0 140 -65 140 -148c0 -142 -63 -284 -212 -284zM1048 44c87 0 139 97 139 219c0 61 -23 100 -82 100c-91 0 -141 -101 -141 -219c0 -61 23 -100 84 -100z" />
    <glyph glyph-name="dotlessi" unicode="&#x131;" horiz-adv-x="233" 
d="M122 0h-72l91 517h72z" />
    <glyph glyph-name="circumflex" unicode="&#x2c6;" horiz-adv-x="503" 
d="M479 583h-68l-68 98l-102 -98h-73l137 145h87z" />
    <glyph glyph-name="tilde" unicode="&#x2dc;" horiz-adv-x="522" 
d="M478 708l47 -25c-30 -57 -71 -89 -120 -89c-57 0 -84 58 -124 58c-28 0 -48 -19 -68 -52l-47 25c31 56 72 89 120 89c57 0 84 -59 124 -59c28 0 49 19 68 53z" />
    <glyph glyph-name="ring" unicode="&#x2da;" horiz-adv-x="335" 
d="M242 610c34 0 70 33 70 71c0 27 -16 48 -44 48c-34 0 -72 -33 -72 -70c0 -28 17 -49 46 -49zM356 688c0 -63 -56 -117 -119 -117c-50 0 -84 35 -84 81c0 59 56 116 119 116c50 0 84 -35 84 -80z" />
    <glyph glyph-name="cedilla" unicode="&#xb8;" horiz-adv-x="352" 
d="M14 -177l33 42c21 -22 46 -35 80 -35c28 0 60 17 60 44c0 25 -26 35 -52 35c-15 0 -30 -2 -41 -5l-13 23l73 105h60l-62 -84s6 1 12 1c39 0 81 -23 81 -73c0 -52 -48 -99 -120 -99c-40 0 -82 15 -111 46z" />
    <glyph glyph-name="hungarumlaut" unicode="&#x2dd;" horiz-adv-x="522" 
d="M396 729l-155 -146h-64l117 146h102zM576 729l-154 -146h-64l117 146h101z" />
    <glyph glyph-name="ccedilla" unicode="&#xe7;" horiz-adv-x="560" 
d="M475 133l38 -50c-45 -46 -125 -91 -216 -94l-30 -41s6 1 13 1c39 0 80 -22 80 -73c0 -52 -48 -99 -120 -99c-40 0 -81 15 -111 46l33 42c22 -22 46 -35 80 -35c28 0 61 17 61 44c0 25 -27 35 -52 35c-16 0 -30 -2 -42 -5l-13 23l45 65c-118 16 -186 105 -186 229
c0 172 144 311 313 311c70 0 141 -24 189 -72l-47 -58c-39 37 -91 61 -151 61c-110 0 -228 -102 -228 -238c0 -109 68 -168 161 -168c83 0 146 41 183 76z" />
    <glyph glyph-name="eacute" unicode="&#xe9;" horiz-adv-x="573" 
d="M462 126l36 -53c-49 -46 -125 -85 -216 -85c-144 0 -228 93 -228 226c0 168 131 318 303 318c129 0 200 -83 200 -201c0 -28 -3 -58 -10 -88h-416c-13 -113 53 -186 155 -186c82 0 137 31 176 69zM145 305h339c1 6 1 18 1 27c0 75 -47 135 -132 135
c-100 0 -188 -79 -208 -162zM546 730l-154 -147h-64l117 147h101z" />
    <glyph glyph-name="egrave" unicode="&#xe8;" horiz-adv-x="573" 
d="M462 126l36 -53c-49 -46 -125 -85 -216 -85c-144 0 -228 93 -228 226c0 168 131 318 303 318c129 0 200 -83 200 -201c0 -28 -3 -58 -10 -88h-416c-13 -113 53 -186 155 -186c82 0 137 31 176 69zM145 305h339c1 6 1 18 1 27c0 75 -47 135 -132 135
c-100 0 -188 -79 -208 -162zM404 583h-64l-104 147h102z" />
    <glyph glyph-name="otilde" unicode="&#xf5;" horiz-adv-x="615" 
d="M589 305c0 -158 -130 -317 -319 -317c-116 0 -215 81 -215 227c0 157 130 317 319 317c116 0 215 -81 215 -227zM282 57c128 0 232 120 232 241c0 100 -64 165 -152 165c-128 0 -232 -121 -232 -241c0 -101 64 -165 152 -165zM528 708l47 -25c-30 -57 -71 -89 -120 -89
c-57 0 -84 58 -124 58c-28 0 -48 -19 -68 -52l-47 25c31 56 72 89 120 89c57 0 84 -59 124 -59c28 0 49 19 68 53z" />
    <glyph glyph-name="ocircumflex" unicode="&#xf4;" horiz-adv-x="615" 
d="M589 305c0 -158 -130 -317 -319 -317c-116 0 -215 81 -215 227c0 157 130 317 319 317c116 0 215 -81 215 -227zM282 57c128 0 232 120 232 241c0 100 -64 165 -152 165c-128 0 -232 -121 -232 -241c0 -101 64 -165 152 -165zM538 570h-68l-68 98l-102 -98h-73l137 145
h87z" />
    <glyph glyph-name="ograve" unicode="&#xf2;" horiz-adv-x="615" 
d="M589 305c0 -158 -130 -317 -319 -317c-116 0 -215 81 -215 227c0 157 130 317 319 317c116 0 215 -81 215 -227zM282 57c128 0 232 120 232 241c0 100 -64 165 -152 165c-128 0 -232 -121 -232 -241c0 -101 64 -165 152 -165zM416 571h-64l-104 147h102z" />
    <glyph glyph-name="oacute" unicode="&#xf3;" horiz-adv-x="615" 
d="M589 305c0 -158 -130 -317 -319 -317c-116 0 -215 81 -215 227c0 157 130 317 319 317c116 0 215 -81 215 -227zM282 57c128 0 232 120 232 241c0 100 -64 165 -152 165c-128 0 -232 -121 -232 -241c0 -101 64 -165 152 -165zM560 718l-154 -147h-64l117 147h101z" />
    <glyph glyph-name="ntilde" unicode="&#xf1;" 
d="M538 0h-73l52 292c21 119 -40 171 -121 171c-75 0 -156 -51 -210 -112l-62 -351h-73l91 517h69l-14 -80c51 49 129 95 216 95c108 0 208 -65 177 -241zM542 708l47 -25c-30 -57 -71 -89 -120 -89c-57 0 -84 58 -124 58c-28 0 -48 -19 -68 -52l-47 25c31 56 72 89 120 89
c57 0 84 -59 124 -59c28 0 49 19 68 53z" />
    <glyph glyph-name="edieresis" unicode="&#xeb;" horiz-adv-x="573" 
d="M462 126l36 -53c-49 -46 -125 -85 -216 -85c-144 0 -228 93 -228 226c0 168 131 318 303 318c129 0 200 -83 200 -201c0 -28 -3 -58 -10 -88h-416c-13 -113 53 -186 155 -186c82 0 137 31 176 69zM145 305h339c1 6 1 18 1 27c0 75 -47 135 -132 135
c-100 0 -188 -79 -208 -162zM263 597c-26 0 -44 20 -44 45c0 31 30 63 63 63c25 0 44 -21 44 -45c0 -32 -31 -63 -63 -63zM460 597c-26 0 -44 20 -44 45c0 31 30 63 63 63c25 0 44 -21 44 -45c0 -32 -31 -63 -63 -63z" />
    <glyph glyph-name="ecircumflex" unicode="&#xea;" horiz-adv-x="573" 
d="M462 126l36 -53c-49 -46 -125 -85 -216 -85c-144 0 -228 93 -228 226c0 168 131 318 303 318c129 0 200 -83 200 -201c0 -28 -3 -58 -10 -88h-416c-13 -113 53 -186 155 -186c82 0 137 31 176 69zM145 305h339c1 6 1 18 1 27c0 75 -47 135 -132 135
c-100 0 -188 -79 -208 -162zM520 583h-68l-68 98l-102 -98h-73l137 145h87z" />
    <glyph glyph-name="uacute" unicode="&#xfa;" 
d="M529 0h-72l14 79c-50 -46 -127 -91 -212 -91c-108 0 -209 65 -178 241l51 288h73l-50 -288c-21 -121 43 -171 122 -171c73 0 156 49 209 110l61 349h73zM553 730l-154 -147h-64l117 147h101z" />
    <glyph glyph-name="ugrave" unicode="&#xf9;" 
d="M529 0h-72l14 79c-50 -46 -127 -91 -212 -91c-108 0 -209 65 -178 241l51 288h73l-50 -288c-21 -121 43 -171 122 -171c73 0 156 49 209 110l61 349h73zM434 583h-64l-104 147h102z" />
    <glyph glyph-name="ucircumflex" unicode="&#xfb;" 
d="M529 0h-72l14 79c-50 -46 -127 -91 -212 -91c-108 0 -209 65 -178 241l51 288h73l-50 -288c-21 -121 43 -171 122 -171c73 0 156 49 209 110l61 349h73zM543 583h-68l-68 98l-102 -98h-73l137 145h87z" />
    <glyph glyph-name="udieresis" unicode="&#xfc;" 
d="M529 0h-72l14 79c-50 -46 -127 -91 -212 -91c-108 0 -209 65 -178 241l51 288h73l-50 -288c-21 -121 43 -171 122 -171c73 0 156 49 209 110l61 349h73zM285 597c-26 0 -44 20 -44 45c0 31 30 63 63 63c25 0 44 -21 44 -45c0 -32 -31 -63 -63 -63zM482 597
c-26 0 -44 20 -44 45c0 31 30 63 63 63c25 0 44 -21 44 -45c0 -32 -31 -63 -63 -63z" />
    <glyph glyph-name="acute" unicode="&#xb4;" horiz-adv-x="315" 
d="M393 730l-154 -147h-64l117 147h101z" />
    <glyph glyph-name="dieresis" unicode="&#xa8;" horiz-adv-x="461" 
d="M190 597c-26 0 -44 20 -44 45c0 31 30 63 63 63c25 0 44 -21 44 -45c0 -32 -31 -63 -63 -63zM387 597c-26 0 -44 20 -44 45c0 31 30 63 63 63c25 0 44 -21 44 -45c0 -32 -31 -63 -63 -63z" />
    <glyph glyph-name="Odieresis" unicode="&#xd6;" horiz-adv-x="777" 
d="M356 -12c-183 0 -293 120 -293 290c0 220 175 434 420 434c183 0 293 -120 293 -290c0 -220 -175 -434 -420 -434zM368 57c181 0 330 169 330 359c0 139 -84 226 -226 226c-182 0 -331 -168 -331 -358c0 -139 84 -227 227 -227zM386 749c-26 0 -44 20 -44 45
c0 31 30 63 63 63c25 0 44 -21 44 -45c0 -32 -31 -63 -63 -63zM583 749c-26 0 -44 20 -44 45c0 31 30 63 63 63c25 0 44 -21 44 -45c0 -32 -31 -63 -63 -63z" />
    <glyph glyph-name="Udieresis" unicode="&#xdc;" horiz-adv-x="728" 
d="M588 269l76 431h76l-78 -438c-31 -175 -157 -274 -321 -274c-163 0 -273 108 -243 280l76 432h76l-77 -431c-21 -117 35 -213 171 -213c132 0 221 85 244 213zM362 749c-26 0 -44 20 -44 45c0 31 30 63 63 63c25 0 44 -21 44 -45c0 -32 -31 -63 -63 -63zM559 749
c-26 0 -44 20 -44 45c0 31 30 63 63 63c25 0 44 -21 44 -45c0 -32 -31 -63 -63 -63z" />
    <glyph glyph-name="Adieresis" unicode="&#xc4;" horiz-adv-x="679" 
d="M634 0h-75l-41 185h-349l-104 -185h-80l409 702h79zM505 251l-83 372l-215 -372h298zM337 749c-26 0 -44 20 -44 45c0 31 30 63 63 63c25 0 44 -21 44 -45c0 -32 -31 -63 -63 -63zM534 749c-26 0 -44 20 -44 45c0 31 30 63 63 63c25 0 44 -21 44 -45
c0 -32 -31 -63 -63 -63z" />
    <glyph glyph-name="Aring" unicode="&#xc5;" horiz-adv-x="679" 
d="M634 0h-76l-41 185h-346l-104 -185h-82l397 681c-28 16 -42 48 -35 85c9 54 60 98 117 98c56 0 91 -44 82 -98c-7 -38 -34 -71 -67 -87zM505 251l-84 371l-213 -371h297zM503 766c7 32 -12 59 -44 59c-31 0 -62 -27 -69 -59c-8 -33 11 -60 43 -60c31 0 62 27 70 60z" />
    <glyph glyph-name="Agrave" unicode="&#xc0;" horiz-adv-x="679" 
d="M634 0h-75l-41 185h-349l-104 -185h-80l409 702h79zM505 251l-83 372l-215 -372h298zM470 738h-64l-104 147h102z" />
    <glyph glyph-name="Atilde" unicode="&#xc3;" horiz-adv-x="679" 
d="M634 0h-75l-41 185h-349l-104 -185h-80l409 702h79zM505 251l-83 372l-215 -372h298zM584 872l47 -25c-30 -57 -71 -89 -120 -89c-57 0 -84 58 -124 58c-28 0 -48 -19 -68 -52l-47 25c31 56 72 89 120 89c57 0 84 -59 124 -59c28 0 49 19 68 53z" />
    <glyph glyph-name="Otilde" unicode="&#xd5;" horiz-adv-x="777" 
d="M356 -12c-183 0 -293 120 -293 290c0 220 175 434 420 434c183 0 293 -120 293 -290c0 -220 -175 -434 -420 -434zM368 57c181 0 330 169 330 359c0 139 -84 226 -226 226c-182 0 -331 -168 -331 -358c0 -139 84 -227 227 -227zM635 886l47 -25c-30 -57 -71 -89 -120 -89
c-57 0 -84 58 -124 58c-28 0 -48 -19 -68 -52l-47 25c31 56 72 89 120 89c57 0 84 -59 124 -59c28 0 49 19 68 53z" />
    <glyph glyph-name="OE" unicode="&#x152;" horiz-adv-x="1145" 
d="M1063 0h-433l22 125c-72 -82 -175 -137 -296 -137c-183 0 -293 120 -293 290c0 220 175 434 420 434c119 0 205 -53 248 -135l22 123h433l-12 -68h-358l-41 -234h292l-11 -68h-292l-47 -262h358zM368 57c182 0 330 176 330 359c0 139 -84 226 -226 226
c-182 0 -331 -168 -331 -358c0 -139 84 -227 227 -227z" />
    <glyph glyph-name="ydieresis" unicode="&#xff;" horiz-adv-x="519" 
d="M154 -81l47 79l-128 519h79l97 -430l238 430h82l-348 -608c-60 -104 -121 -159 -198 -159c-20 0 -42 4 -64 11l30 69c15 -5 31 -8 45 -8c45 0 84 35 120 97zM235 597c-26 0 -44 20 -44 45c0 31 30 63 63 63c25 0 44 -21 44 -45c0 -32 -31 -63 -63 -63zM432 597
c-26 0 -44 20 -44 45c0 31 30 63 63 63c25 0 44 -21 44 -45c0 -32 -31 -63 -63 -63z" />
    <glyph glyph-name="Ydieresis" unicode="&#x178;" horiz-adv-x="588" 
d="M301 0h-75l51 293l-171 407h82l136 -338l255 338h89l-317 -408zM292 750c-26 0 -44 20 -44 45c0 31 30 63 63 63c25 0 44 -21 44 -45c0 -32 -31 -63 -63 -63zM489 750c-26 0 -44 20 -44 45c0 31 30 63 63 63c25 0 44 -21 44 -45c0 -32 -31 -63 -63 -63z" />
    <glyph glyph-name="Acircumflex" unicode="&#xc2;" horiz-adv-x="679" 
d="M634 0h-75l-41 185h-349l-104 -185h-80l409 702h79zM505 251l-83 372l-215 -372h298zM594 744h-68l-68 98l-102 -98h-73l137 145h87z" />
    <glyph glyph-name="Ecircumflex" unicode="&#xca;" horiz-adv-x="575" 
d="M494 0h-433l123 700h433l-12 -68h-358l-41 -234h292l-12 -68h-292l-46 -262h358zM562 746h-68l-68 98l-102 -98h-73l137 145h87z" />
    <glyph glyph-name="Aacute" unicode="&#xc1;" horiz-adv-x="679" 
d="M634 0h-75l-41 185h-349l-104 -185h-80l409 702h79zM505 251l-83 372l-215 -372h298zM628 892l-154 -147h-64l117 147h101z" />
    <glyph glyph-name="Edieresis" unicode="&#xcb;" horiz-adv-x="575" 
d="M494 0h-433l123 700h433l-12 -68h-358l-41 -234h292l-12 -68h-292l-46 -262h358zM304 749c-26 0 -44 20 -44 45c0 31 30 63 63 63c25 0 44 -21 44 -45c0 -32 -31 -63 -63 -63zM501 749c-26 0 -44 20 -44 45c0 31 30 63 63 63c25 0 44 -21 44 -45c0 -32 -31 -63 -63 -63z
" />
    <glyph glyph-name="Egrave" unicode="&#xc8;" horiz-adv-x="575" 
d="M494 0h-433l123 700h433l-12 -68h-358l-41 -234h292l-12 -68h-292l-46 -262h358zM454 745h-64l-104 147h102z" />
    <glyph glyph-name="Iacute" unicode="&#xcd;" horiz-adv-x="257" 
d="M136 0h-75l123 700h75zM413 892l-154 -147h-64l117 147h101z" />
    <glyph glyph-name="Icircumflex" unicode="&#xce;" horiz-adv-x="257" 
d="M136 0h-75l123 700h75zM385 746h-68l-68 98l-102 -98h-73l137 145h87z" />
    <glyph glyph-name="Idieresis" unicode="&#xcf;" horiz-adv-x="257" 
d="M136 0h-75l123 700h75zM127 749c-26 0 -44 20 -44 45c0 31 30 63 63 63c25 0 44 -21 44 -45c0 -32 -31 -63 -63 -63zM324 749c-26 0 -44 20 -44 45c0 31 30 63 63 63c25 0 44 -21 44 -45c0 -32 -31 -63 -63 -63z" />
    <glyph glyph-name="Igrave" unicode="&#xcc;" horiz-adv-x="257" 
d="M136 0h-75l123 700h75zM265 745h-64l-104 147h102z" />
    <glyph glyph-name="Oacute" unicode="&#xd3;" horiz-adv-x="777" 
d="M356 -12c-183 0 -293 120 -293 290c0 220 175 434 420 434c183 0 293 -120 293 -290c0 -220 -175 -434 -420 -434zM368 57c181 0 330 169 330 359c0 139 -84 226 -226 226c-182 0 -331 -168 -331 -358c0 -139 84 -227 227 -227zM667 893l-154 -147h-64l117 147h101z" />
    <glyph glyph-name="Ocircumflex" unicode="&#xd4;" horiz-adv-x="776" 
d="M356 -12c-183 0 -293 120 -293 290c0 220 175 434 420 434c183 0 293 -120 293 -290c0 -220 -175 -434 -420 -434zM368 57c181 0 330 169 330 359c0 139 -84 226 -226 226c-182 0 -331 -168 -331 -358c0 -139 84 -227 227 -227zM645 746h-68l-68 98l-102 -98h-73l137 145
h87z" />
    <glyph glyph-name="Uacute" unicode="&#xda;" horiz-adv-x="728" 
d="M588 269l76 431h76l-78 -438c-31 -175 -157 -274 -321 -274c-163 0 -273 108 -243 280l76 432h76l-77 -431c-21 -117 35 -213 171 -213c132 0 221 85 244 213zM632 892l-154 -147h-64l117 147h101z" />
    <glyph glyph-name="Ucircumflex" unicode="&#xdb;" horiz-adv-x="728" 
d="M588 269l76 431h76l-78 -438c-31 -175 -157 -274 -321 -274c-163 0 -273 108 -243 280l76 432h76l-77 -431c-21 -117 35 -213 171 -213c132 0 221 85 244 213zM620 746h-68l-68 98l-102 -98h-73l137 145h87z" />
    <glyph glyph-name="Ugrave" unicode="&#xd9;" horiz-adv-x="728" 
d="M588 269l76 431h76l-78 -438c-31 -175 -157 -274 -321 -274c-163 0 -273 108 -243 280l76 432h76l-77 -431c-21 -117 35 -213 171 -213c132 0 221 85 244 213zM517 745h-64l-104 147h102z" />
    <glyph glyph-name="Ograve" unicode="&#xd2;" horiz-adv-x="777" 
d="M356 -12c-183 0 -293 120 -293 290c0 220 175 434 420 434c183 0 293 -120 293 -290c0 -220 -175 -434 -420 -434zM368 57c181 0 330 169 330 359c0 139 -84 226 -226 226c-182 0 -331 -168 -331 -358c0 -139 84 -227 227 -227zM520 746h-64l-104 147h102z" />
    <glyph glyph-name="Yacute" unicode="&#xdd;" horiz-adv-x="588" 
d="M301 0h-75l51 293l-171 407h82l136 -338l255 338h89l-317 -408zM575 892l-154 -147h-64l117 147h101z" />
    <glyph glyph-name="yacute" unicode="&#xfd;" horiz-adv-x="519" 
d="M154 -81l47 79l-128 519h79l97 -430l238 430h82l-348 -608c-60 -104 -121 -159 -198 -159c-20 0 -42 4 -64 11l30 69c15 -5 31 -8 45 -8c45 0 84 35 120 97zM512 730l-154 -147h-64l117 147h101z" />
    <glyph glyph-name="dollar" unicode="$" horiz-adv-x="524" 
d="M232 -112h-56l23 117c-62 8 -125 31 -177 75l42 59c47 -41 119 -71 187 -71c93 0 169 57 169 131c0 150 -307 119 -307 316c0 94 83 176 206 183l19 109h56l-21 -111c69 -9 125 -39 165 -77l-48 -54c-44 43 -96 67 -158 67c-95 0 -146 -61 -146 -115
c0 -142 307 -123 307 -307c0 -105 -89 -205 -239 -208z" />
    <glyph glyph-name="Eacute" unicode="&#xc9;" horiz-adv-x="575" 
d="M494 0h-433l123 700h433l-12 -68h-358l-41 -234h292l-12 -68h-292l-46 -262h358zM570 893l-154 -147h-64l117 147h101z" />
    <glyph glyph-name="thorn" unicode="&#xfe;" horiz-adv-x="645" 
d="M80 -235h-72l166 935h72l-47 -259c58 56 132 91 213 91c134 0 207 -93 207 -219c0 -157 -122 -325 -300 -325c-72 0 -139 26 -184 90zM184 351l-32 -183c25 -58 81 -112 170 -112c124 0 220 128 220 251c0 87 -49 157 -150 157c-86 0 -158 -55 -208 -113z" />
    <glyph glyph-name="caron" unicode="&#x2c7;" horiz-adv-x="503" 
d="M367 583h-87l-87 145h67l68 -98l103 98h73z" />
    <glyph glyph-name="Zcaron" unicode="&#x17d;" horiz-adv-x="603" 
d="M538 0h-524v23l493 609h-378l12 68h498l-1 -23l-498 -609h409zM432 747h-87l-87 145h67l68 -98l103 98h73z" />
    <glyph glyph-name="zcaron" unicode="&#x17e;" horiz-adv-x="533" 
d="M461 0h-452l1 16l385 435h-289l12 66h415l-2 -17l-386 -433h327zM376 583h-87l-87 145h67l68 -98l103 98h73z" />
    <glyph glyph-name="minus" unicode="&#x2212;" horiz-adv-x="530" 
d="M506 297h-438l12 63h438z" />
    <glyph glyph-name="Thorn" unicode="&#xde;" horiz-adv-x="581" 
d="M294 130h-138l-22 -130h-73l123 700h73l-23 -130h124c144 0 220 -80 220 -182c0 -150 -127 -258 -284 -258zM168 198h127c155 0 207 108 207 185c0 68 -43 119 -156 119h-124z" />
    <glyph glyph-name="scaron" unicode="&#x161;" horiz-adv-x="488" 
d="M31 36l28 63c45 -31 99 -47 153 -47c85 0 142 41 142 94c0 60 -72 75 -137 94c-52 16 -137 50 -137 142c0 88 79 150 194 150c66 0 132 -21 180 -57l-36 -56c-39 27 -87 49 -147 49c-75 0 -117 -35 -117 -80c0 -57 68 -76 136 -96c75 -21 139 -55 139 -135
c0 -99 -96 -169 -220 -169c-62 0 -133 17 -178 48zM346 583h-87l-87 145h67l68 -98l103 98h73z" />
    <glyph glyph-name="Scaron" unicode="&#x160;" horiz-adv-x="541" 
d="M18 70l44 61c48 -43 123 -73 194 -73c97 0 175 58 175 136c0 154 -319 123 -319 327c0 103 95 191 232 191c90 0 161 -36 210 -83l-50 -55c-45 44 -100 69 -164 69c-98 0 -152 -63 -152 -120c0 -146 319 -127 319 -318c0 -110 -96 -217 -252 -217c-78 0 -168 23 -237 82z
M412 745h-87l-87 145h67l68 -98l103 98h73z" />
    <glyph glyph-name="Euro" unicode="&#x20ac;" horiz-adv-x="739" 
d="M668 113l28 -58c-64 -41 -143 -67 -223 -67c-177 0 -282 113 -301 250h-125l9 57h113c1 18 3 37 6 56c3 18 8 38 16 60h-115l10 56h127c66 138 199 245 377 245c88 0 158 -28 207 -73l-48 -57c-42 34 -94 58 -168 58c-127 0 -235 -77 -286 -173h281l-10 -56h-298
c-7 -20 -12 -39 -16 -59c-3 -20 -5 -39 -5 -57h298l-10 -57h-281c19 -102 102 -179 230 -179c74 0 137 24 184 54z" />
    <glyph glyph-name="mu" unicode="&#xb5;" horiz-adv-x="650" 
d="M539 0h-73l14 79c-59 -54 -132 -91 -214 -91c-51 0 -102 17 -133 58l-50 -281h-73l132 752h73l-50 -287c-21 -120 43 -173 131 -173c71 0 148 44 199 113l62 347h73z" />
    <glyph glyph-name="mu" unicode="&#x3bc;" horiz-adv-x="650" 
d="M539 0h-73l14 79c-59 -54 -132 -91 -214 -91c-51 0 -102 17 -133 58l-50 -281h-73l132 752h73l-50 -287c-21 -120 43 -173 131 -173c71 0 148 44 199 113l62 347h73z" />
    <glyph glyph-name="plusminus" unicode="&#xb1;" horiz-adv-x="560" 
d="M532 359h-187l-30 -168h-63l29 168h-187l11 64h187l30 169h64l-30 -169h187zM481 70h-438l11 64h438z" />
    <glyph glyph-name="germandbls" unicode="&#xdf;" horiz-adv-x="565" 
d="M182 -4l12 67c22 -5 48 -9 71 -9c107 0 186 62 186 162c0 73 -63 116 -157 120l-7 60c99 7 169 89 169 162c0 46 -34 87 -100 87c-87 0 -134 -55 -146 -125l-92 -520h-72l91 517c21 123 106 195 231 195c106 0 163 -64 163 -141c0 -72 -48 -150 -137 -193
c79 -19 133 -79 133 -156c0 -140 -123 -234 -263 -234c-32 0 -56 3 -82 8z" />
    <glyph glyph-name="degree" unicode="&#xb0;" horiz-adv-x="435" 
d="M260 426c69 0 133 63 133 136c0 51 -35 89 -89 89c-70 0 -132 -63 -132 -136c0 -52 34 -89 88 -89zM452 569c0 -104 -93 -195 -199 -195c-86 0 -140 57 -140 134c0 103 90 196 199 196c86 0 140 -58 140 -135z" />
    <glyph glyph-name="pi" unicode="&#x3c0;" horiz-adv-x="699" 
d="M626 62v-58c-19 -9 -49 -14 -67 -14c-64 0 -127 33 -106 150l55 313h-178l-80 -453h-74l80 450c-54 -1 -110 -26 -161 -66l-28 56c60 48 131 77 216 77h438l-11 -64h-129l-55 -315c-9 -53 10 -84 55 -84c17 0 31 2 45 8z" />
    <glyph glyph-name="dotaccent" unicode="&#x2d9;" horiz-adv-x="224" 
d="M186 598c-26 0 -44 20 -44 44c0 32 31 62 63 62c25 0 43 -20 43 -44c0 -33 -31 -62 -62 -62z" />
    <glyph glyph-name="ogonek" unicode="&#x2db;" horiz-adv-x="303" 
d="M223 -154l-8 -48c-21 -8 -42 -10 -66 -10c-47 0 -87 27 -87 75c0 50 48 124 159 170l55 -13c-77 -36 -152 -99 -152 -148c0 -26 22 -35 47 -35c19 0 37 4 52 9z" />
    <glyph glyph-name="breve" unicode="&#x2d8;" horiz-adv-x="519" 
d="M464 691h59c-22 -91 -100 -133 -195 -133s-163 40 -149 133h59c-7 -62 42 -75 93 -75c59 0 114 15 133 75z" />
    <glyph glyph-name="ordfeminine" unicode="&#xaa;" horiz-adv-x="531" 
d="M482 325h-63l10 57c-46 -43 -107 -67 -159 -67c-103 0 -157 80 -152 173c5 113 96 221 221 221c52 0 103 -23 135 -67l11 59h63zM437 450l22 123c-17 39 -68 80 -122 80c-81 0 -150 -78 -153 -164c-3 -68 31 -118 101 -118c56 0 122 41 152 79z" />
    <glyph glyph-name="ordmasculine" unicode="&#xba;" horiz-adv-x="525" 
d="M297 371c87 0 162 75 162 169c0 70 -46 112 -111 112c-88 0 -163 -74 -163 -169c0 -70 46 -112 112 -112zM526 547c0 -133 -111 -233 -238 -233c-95 0 -169 62 -169 163c0 132 112 232 238 232c95 0 169 -61 169 -162z" />
    <glyph glyph-name="lessequal" unicode="&#x2264;" horiz-adv-x="538" 
d="M456 57h-415l11 64h415zM479 185l-387 166l13 70l445 167l-14 -76l-363 -129l318 -129z" />
    <glyph glyph-name="greaterequal" unicode="&#x2265;" horiz-adv-x="538" 
d="M456 57h-415l11 64h415zM508 351l-445 -166l14 76l364 129l-318 129l11 69l386 -167z" />
    <glyph glyph-name="threequarters" unicode="&#xbe;" horiz-adv-x="845" 
d="M229 0h-68l507 700h68zM395 664l-128 -122c71 -7 102 -46 102 -92c0 -87 -83 -137 -158 -137c-44 0 -97 19 -123 48l25 47c26 -27 63 -40 100 -40c56 0 95 39 95 79c0 34 -25 54 -82 54h-32l-1 35l112 110h-152l9 54h239zM708 0h-58l17 97h-187l-5 44l182 258h64
l-178 -251h133l22 122h57l-22 -122h56l-9 -51h-56z" />
    <glyph glyph-name="onehalf" unicode="&#xbd;" horiz-adv-x="793" 
d="M161 0h-67l506 700h68zM225 324h-57l55 315l-98 -48l10 55l109 54h47zM697 0h-264l6 33c12 71 76 107 134 138c56 30 108 56 108 111c0 32 -26 49 -60 49c-43 0 -76 -16 -110 -37l-16 45c30 23 81 47 136 47c69 0 112 -41 112 -94c0 -76 -67 -121 -129 -153
c-47 -25 -93 -47 -109 -86h201z" />
    <glyph glyph-name="onequarter" unicode="&#xbc;" horiz-adv-x="778" 
d="M161 0h-67l506 700h68zM225 324h-57l55 315l-98 -48l10 55l109 54h47zM641 0h-57l17 97h-187l-5 44l181 258h65l-178 -251h133l22 122h57l-22 -122h56l-9 -51h-56z" />
    <glyph glyph-name="threesuperior" unicode="&#xb3;" horiz-adv-x="378" 
d="M396 664l-128 -122c71 -7 102 -46 102 -92c0 -87 -83 -137 -158 -137c-44 0 -97 19 -123 48l25 47c26 -27 63 -40 100 -40c56 0 95 39 95 79c0 34 -25 54 -82 54h-32l-1 35l112 110h-152l9 54h239z" />
    <glyph glyph-name="twosuperior" unicode="&#xb2;" horiz-adv-x="377" 
d="M347 324h-264l5 33c13 71 76 107 135 138c56 30 108 56 108 111c0 32 -27 49 -61 49c-42 0 -75 -16 -109 -37l-16 45c30 23 80 47 135 47c70 0 112 -41 112 -94c0 -76 -66 -121 -128 -153c-48 -25 -93 -47 -110 -86h202z" />
    <glyph glyph-name="brokenbar" unicode="&#xa6;" horiz-adv-x="259" 
d="M185 295h-67l71 405h67zM89 -250h-67l71 405h67z" />
    <glyph glyph-name="Ccedilla" unicode="&#xc7;" horiz-adv-x="688" 
d="M625 165l34 -57c-49 -52 -159 -117 -279 -119l-30 -41c5 1 11 1 16 1c40 -3 77 -26 77 -73c0 -52 -48 -99 -120 -99c-40 0 -81 15 -110 46l32 42c22 -22 46 -35 80 -35c28 0 61 17 61 44c0 25 -27 35 -52 35c-16 0 -30 -2 -42 -5l-13 23l45 65c-170 17 -260 145 -260 300
c0 203 166 420 418 420c108 0 184 -42 232 -94l-48 -57c-49 54 -121 80 -192 80c-189 0 -332 -177 -332 -344c0 -128 78 -238 224 -238c117 0 205 50 259 106z" />
    <glyph glyph-name="asciitilde" unicode="~" horiz-adv-x="516" 
d="M462 414l54 -17c-22 -76 -76 -119 -139 -119c-49 0 -81 28 -107 55c-25 25 -44 39 -71 39c-36 0 -64 -25 -82 -78l-54 16c22 75 73 120 136 120c50 0 82 -29 109 -55c25 -25 42 -39 69 -39c36 0 67 24 85 78z" />
    <glyph glyph-name="macron" unicode="&#xaf;" horiz-adv-x="520" 
d="M509 609h-345l10 61h345z" />
    <glyph glyph-name="infinity" unicode="&#x221e;" horiz-adv-x="904" 
d="M453 348c-16 79 -66 143 -143 143c-84 0 -161 -72 -161 -164c0 -66 49 -121 115 -121c78 0 153 69 189 142zM514 348c15 -79 65 -143 142 -143c84 0 161 72 161 164c0 65 -48 121 -114 121c-79 0 -154 -69 -189 -142zM470 271c-50 -91 -135 -133 -212 -133
c-101 0 -179 78 -179 187c0 134 107 234 233 234c67 0 151 -32 184 -134c50 91 136 133 212 133c101 0 179 -78 179 -187c0 -134 -108 -234 -234 -234c-66 0 -149 31 -183 134z" />
    <glyph glyph-name="Ntilde" unicode="&#xd1;" horiz-adv-x="765" 
d="M644 0h-66l-341 579l-102 -579h-74l123 700h62l344 -585l103 585h74zM624 863l47 -25c-30 -57 -71 -89 -120 -89c-57 0 -84 58 -124 58c-28 0 -48 -19 -68 -52l-47 25c31 56 72 89 120 89c57 0 84 -59 124 -59c28 0 49 19 68 53z" />
    <glyph glyph-name="registered" unicode="&#xae;" horiz-adv-x="835" 
d="M572 164h-67l-65 151h-66l-26 -151h-59l68 385h136c82 0 122 -40 122 -97c0 -61 -45 -114 -113 -131zM383 365h70c59 0 104 33 104 82c0 34 -29 51 -74 51h-76zM748 393c0 149 -93 254 -247 254c-183 0 -352 -158 -352 -343c0 -147 99 -252 247 -252
c184 0 352 163 352 341zM805 400c0 -218 -198 -403 -418 -403c-176 0 -296 128 -296 303c0 210 191 402 420 402c175 0 294 -127 294 -302z" />
    <glyph glyph-name="trademark" unicode="&#x2122;" horiz-adv-x="708" 
d="M218 388h-55l47 263h-84l9 49h221l-9 -49h-83zM675 388h-54l39 223l-132 -170h-10l-72 170l-39 -223h-54l55 312h52l75 -183l140 183h55z" />
    <glyph glyph-name="Eth" unicode="&#xd0;" horiz-adv-x="740" 
d="M333 0h-227l56 320h-112l12 67h111l56 313h220c196 0 290 -130 290 -278c0 -204 -162 -422 -406 -422zM192 68h145c181 0 324 158 324 350c0 119 -76 214 -213 214h-156l-44 -245h130l-12 -67h-130z" />
    <glyph glyph-name="eth" unicode="&#xf0;" horiz-adv-x="580" 
d="M430 449l-42 109l-87 -45l-19 49l86 44l-39 103h85l25 -70l87 44l17 -48l-85 -44l59 -156c23 -61 35 -107 35 -154c0 -188 -160 -293 -291 -293c-113 0 -209 73 -209 210c0 172 151 279 279 279c42 0 75 -11 99 -28zM269 53c96 0 210 86 210 213c0 91 -67 148 -148 148
c-108 0 -210 -101 -210 -208c0 -96 64 -153 148 -153z" />
    <glyph glyph-name="onesuperior" unicode="&#xb9;" horiz-adv-x="290" 
d="M225 324h-57l55 315l-98 -48l10 55l109 54h47z" />
    <glyph glyph-name="multiply" unicode="&#xd7;" horiz-adv-x="437" 
d="M398 195l-47 -40l-108 132l-161 -136l-37 46l159 135l-108 133l47 40l109 -132l157 134l38 -46l-158 -134z" />
    <glyph glyph-name="florin" unicode="&#x192;" horiz-adv-x="478" 
d="M402 241h-135l-128 -331c-46 -117 -121 -169 -210 -169c-39 0 -78 12 -111 28l32 60c23 -12 49 -22 79 -22c55 0 113 35 148 126l118 308h-111l10 61h124l94 240c45 116 121 168 210 168c39 0 78 -11 111 -27l-32 -61c-23 13 -49 22 -79 22c-55 0 -113 -34 -148 -125
l-84 -217h122z" />
    <glyph glyph-name="questiondown" unicode="&#xbf;" horiz-adv-x="492" 
d="M388 -55l31 -57c-53 -39 -129 -77 -214 -77c-118 0 -182 77 -182 166c0 122 101 229 252 251l21 113h73l-27 -164c-132 -5 -243 -80 -243 -188c0 -65 45 -110 120 -110c58 0 120 29 169 66zM344 415c-29 0 -48 20 -48 48c0 37 34 69 69 69c29 0 48 -21 48 -48
c0 -34 -31 -69 -69 -69z" />
    <glyph glyph-name="exclamdown" unicode="&#xa1;" horiz-adv-x="246" 
d="M102 -178h-82l110 544h55zM166 414c-29 0 -48 21 -48 48c0 37 33 69 69 69c29 0 48 -20 48 -47c0 -35 -31 -70 -69 -70z" />
    <glyph glyph-name="yen" unicode="&#xa5;" horiz-adv-x="615" 
d="M532 146h-192l-25 -146h-75l25 146h-192l10 56h193l15 91h-192l10 56h159l-149 351h81l137 -340l254 340h91l-271 -351h158l-11 -56h-192l-15 -91h192z" />
    <glyph glyph-name="notequal" unicode="&#x2260;" horiz-adv-x="543" 
d="M495 201h-267l-92 -115h-61l91 115h-109l12 64h149l101 127h-228l11 64h268l92 115h59l-91 -115h110l-11 -64h-150l-100 -127h228z" />
    <glyph glyph-name="partialdiff" unicode="&#x2202;" horiz-adv-x="580" 
d="M430 449l-101 260h85l103 -274c23 -61 35 -107 35 -154c0 -188 -159 -293 -291 -293c-112 0 -209 73 -209 210c0 171 151 279 279 279c42 0 76 -11 99 -28zM270 53c96 0 209 86 209 213c0 91 -67 148 -148 148c-108 0 -209 -101 -209 -208c0 -96 63 -153 148 -153z" />
    <glyph glyph-name="summation" unicode="&#x2211;" horiz-adv-x="638" 
d="M540 0h-528l10 54l354 296l-250 295l9 55h528l-37 -208h-63l25 143h-373l239 -274l-6 -34l-322 -263h362l25 144h63z" />
    <glyph glyph-name="product" unicode="&#x220f;" horiz-adv-x="676" 
d="M498 0h-74l112 636h-232l-112 -636h-74l112 636h-106l11 64h591l-11 -64h-106z" />
    <glyph glyph-name="integral" unicode="&#x222b;" horiz-adv-x="653" 
d="M183 -74l240 617c47 120 130 169 220 169c34 0 72 -8 103 -25l-34 -63c-24 15 -49 22 -74 22c-61 0 -119 -40 -149 -117l-239 -617c-47 -121 -130 -170 -220 -170c-34 0 -72 8 -103 26l34 63c24 -15 48 -23 73 -23c60 0 119 41 149 118z" />
    <glyph glyph-name="Omega" unicode="&#x3a9;" horiz-adv-x="790" 
d="M706 0h-292l11 61c169 74 280 229 280 380c0 120 -75 207 -230 207c-190 0 -313 -152 -313 -322c0 -110 57 -210 165 -265l-11 -61h-291l11 65h192c-81 55 -138 158 -138 267c0 202 161 380 396 380c192 0 291 -117 291 -264c0 -151 -106 -307 -246 -383h186z" />
    <glyph glyph-name="Omega" unicode="&#x2126;" horiz-adv-x="790" 
d="M706 0h-292l11 61c169 74 280 229 280 380c0 120 -75 207 -230 207c-190 0 -313 -152 -313 -322c0 -110 57 -210 165 -265l-11 -61h-291l11 65h192c-81 55 -138 158 -138 267c0 202 161 380 396 380c192 0 291 -117 291 -264c0 -151 -106 -307 -246 -383h186z" />
    <glyph glyph-name="logicalnot" unicode="&#xac;" horiz-adv-x="638" 
d="M578 202h-71l32 180h-447l11 66h518z" />
    <glyph glyph-name="radical" unicode="&#x221a;" horiz-adv-x="658" 
d="M339 0h-48l-98 451h-118l12 66h166l81 -392l319 575h80z" />
    <glyph glyph-name="Delta" unicode="&#x394;" horiz-adv-x="643" 
d="M526 0h-551l8 53l359 647h62l131 -647zM462 66l-104 534l-298 -534h402z" />
    <glyph glyph-name="Delta" unicode="&#x2206;" horiz-adv-x="643" 
d="M526 0h-551l8 53l359 647h62l131 -647zM462 66l-104 534l-298 -534h402z" />
    <glyph glyph-name="lozenge" unicode="&#x25ca;" horiz-adv-x="571" 
d="M289 0h-66l-147 336l5 27l263 337h66l147 -337l-5 -27zM264 69l225 286l-120 276l-225 -287z" />
    <glyph glyph-name="AE" unicode="&#xc6;" horiz-adv-x="927" 
d="M846 0h-421l33 192h-245l-140 -192h-89l522 700h463l-12 -68h-347l-41 -234h281l-12 -69h-281l-46 -261h346zM470 260l67 377l-275 -377h208z" />
    <glyph glyph-name="ae" unicode="&#xe6;" horiz-adv-x="1015" 
d="M908 125l34 -52c-47 -45 -122 -85 -216 -85c-82 0 -144 33 -179 88l-14 -76h-69l13 80c-63 -58 -138 -92 -219 -92c-136 0 -204 96 -204 216c0 155 114 328 301 328c73 0 139 -26 185 -92l15 77h69l-11 -63c50 47 115 78 190 78c129 0 199 -83 199 -201
c0 -28 -4 -58 -11 -88h-415c-13 -113 51 -186 155 -186c75 0 133 31 177 68zM490 168l32 183c-25 58 -82 113 -170 113c-126 0 -222 -127 -222 -249c0 -91 49 -159 143 -159c85 0 169 55 217 112zM589 305h339c2 9 2 18 2 27c0 75 -47 135 -132 135
c-101 0 -189 -79 -209 -162z" />
    <glyph glyph-name="odieresis" unicode="&#xf6;" horiz-adv-x="615" 
d="M589 305c0 -158 -130 -317 -319 -317c-116 0 -215 81 -215 227c0 157 130 317 319 317c116 0 215 -81 215 -227zM282 57c128 0 232 120 232 241c0 100 -64 165 -152 165c-128 0 -232 -121 -232 -241c0 -101 64 -165 152 -165zM281 595c-26 0 -44 20 -44 45
c0 31 30 63 63 63c25 0 44 -21 44 -45c0 -32 -31 -63 -63 -63zM478 595c-26 0 -44 20 -44 45c0 31 30 63 63 63c25 0 44 -21 44 -45c0 -32 -31 -63 -63 -63z" />
    <glyph glyph-name="cent" unicode="&#xa2;" horiz-adv-x="559" 
d="M282 -143h-68l24 135c-117 18 -183 107 -183 229c0 159 123 291 277 308l22 125h69l-23 -124c60 -6 116 -30 157 -70l-48 -58c-38 37 -90 61 -150 61c-110 0 -228 -102 -228 -238c0 -109 68 -168 161 -168c83 0 145 41 182 76l39 -50c-44 -44 -121 -89 -208 -94z" />
    <glyph glyph-name="oslash" unicode="&#xf8;" horiz-adv-x="617" 
d="M632 517l-80 -76c25 -36 39 -82 39 -136c0 -158 -130 -317 -319 -317c-53 0 -102 16 -140 48l-37 -36h-77l79 75c-25 36 -41 83 -41 140c0 157 130 317 319 317c53 0 103 -17 141 -50l36 35h80zM155 131l306 297c-26 22 -60 35 -98 35c-128 0 -232 -121 -232 -241
c0 -36 9 -66 24 -91zM494 385l-306 -296c25 -20 59 -32 96 -32c128 0 232 120 232 241c0 34 -8 63 -22 87z" />
    <glyph glyph-name="a" unicode="a" horiz-adv-x="645" 
d="M533 0h-69l13 80c-63 -58 -138 -92 -219 -92c-136 0 -204 96 -204 216c0 155 114 328 301 328c73 0 139 -26 185 -92l15 77h69zM490 168l32 183c-25 58 -82 113 -170 113c-126 0 -222 -127 -222 -249c0 -91 49 -159 143 -159c85 0 169 55 217 112z" />
    <glyph glyph-name="agrave" unicode="&#xe0;" horiz-adv-x="645" 
d="M533 0h-69l13 80c-63 -58 -138 -92 -219 -92c-136 0 -204 96 -204 216c0 155 114 328 301 328c73 0 139 -26 185 -92l15 77h69zM490 168l32 183c-25 58 -82 113 -170 113c-126 0 -222 -127 -222 -249c0 -91 49 -159 143 -159c85 0 169 55 217 112zM456 583h-64l-104 147
h102z" />
    <glyph glyph-name="aacute" unicode="&#xe1;" horiz-adv-x="645" 
d="M533 0h-69l13 80c-63 -58 -138 -92 -219 -92c-136 0 -204 96 -204 216c0 155 114 328 301 328c73 0 139 -26 185 -92l15 77h69zM490 168l32 183c-25 58 -82 113 -170 113c-126 0 -222 -127 -222 -249c0 -91 49 -159 143 -159c85 0 169 55 217 112zM558 730l-154 -147h-64
l117 147h101z" />
    <glyph glyph-name="acircumflex" unicode="&#xe2;" horiz-adv-x="645" 
d="M533 0h-69l13 80c-63 -58 -138 -92 -219 -92c-136 0 -204 96 -204 216c0 155 114 328 301 328c73 0 139 -26 185 -92l15 77h69zM490 168l32 183c-25 58 -82 113 -170 113c-126 0 -222 -127 -222 -249c0 -91 49 -159 143 -159c85 0 169 55 217 112zM531 583h-68l-68 98
l-102 -98h-73l137 145h87z" />
    <glyph glyph-name="atilde" unicode="&#xe3;" horiz-adv-x="645" 
d="M533 0h-69l13 80c-63 -58 -138 -92 -219 -92c-136 0 -204 96 -204 216c0 155 114 328 301 328c73 0 139 -26 185 -92l15 77h69zM490 168l32 183c-25 58 -82 113 -170 113c-126 0 -222 -127 -222 -249c0 -91 49 -159 143 -159c85 0 169 55 217 112zM541 708l47 -25
c-30 -57 -71 -89 -120 -89c-57 0 -84 58 -124 58c-28 0 -48 -19 -68 -52l-47 25c31 56 72 89 120 89c57 0 84 -59 124 -59c28 0 49 19 68 53z" />
    <glyph glyph-name="adieresis" unicode="&#xe4;" horiz-adv-x="645" 
d="M533 0h-69l13 80c-63 -58 -138 -92 -219 -92c-136 0 -204 96 -204 216c0 155 114 328 301 328c73 0 139 -26 185 -92l15 77h69zM490 168l32 183c-25 58 -82 113 -170 113c-126 0 -222 -127 -222 -249c0 -91 49 -159 143 -159c85 0 169 55 217 112zM273 597
c-26 0 -44 20 -44 45c0 31 30 63 63 63c25 0 44 -21 44 -45c0 -32 -31 -63 -63 -63zM470 597c-26 0 -44 20 -44 45c0 31 30 63 63 63c25 0 44 -21 44 -45c0 -32 -31 -63 -63 -63z" />
    <glyph glyph-name="aring" unicode="&#xe5;" horiz-adv-x="645" 
d="M533 0h-69l13 80c-63 -58 -138 -92 -219 -92c-136 0 -204 96 -204 216c0 155 114 328 301 328c73 0 139 -26 185 -92l15 77h69zM490 168l32 183c-25 58 -82 113 -170 113c-126 0 -222 -127 -222 -249c0 -91 49 -159 143 -159c85 0 169 55 217 112zM375 612
c34 0 70 33 70 71c0 27 -16 48 -44 48c-34 0 -72 -33 -72 -70c0 -28 17 -49 46 -49zM489 690c0 -63 -56 -117 -119 -117c-50 0 -84 35 -84 81c0 59 56 116 119 116c50 0 84 -35 84 -80z" />
    <glyph glyph-name="a.alt" horiz-adv-x="553" 
d="M454 0h-71l13 76c-59 -54 -133 -86 -203 -86c-85 0 -155 47 -155 140c0 136 126 174 231 174h166l4 27c12 79 -30 135 -123 135c-60 0 -120 -25 -175 -67l-28 56c59 44 135 77 216 77c123 0 205 -83 182 -212zM407 152l17 96h-146c-57 0 -163 -13 -163 -110
c0 -57 44 -84 93 -84c79 0 157 49 199 98z" />
    <glyph glyph-name="oe" unicode="&#x153;" horiz-adv-x="1029" 
d="M916 126l36 -53c-49 -46 -126 -85 -217 -85c-107 0 -179 52 -208 133c-55 -77 -145 -133 -256 -133c-116 0 -216 81 -216 227c0 157 131 317 319 317c86 0 164 -46 196 -131c53 77 140 131 242 131c129 0 199 -83 199 -201c0 -28 -3 -58 -10 -88h-416
c-13 -113 53 -186 155 -186c82 0 137 31 176 69zM283 57c124 0 232 117 232 241c0 100 -64 165 -152 165c-128 0 -232 -121 -232 -241c0 -101 64 -165 152 -165zM599 305h339c1 9 1 18 1 27c0 75 -47 135 -132 135c-100 0 -188 -79 -208 -162z" />
    <glyph glyph-name="Lslash" unicode="&#x141;" horiz-adv-x="505" 
d="M451 0h-372l56 323l-92 -48l13 73l92 50l54 302h74l-46 -258l154 82l-12 -75l-155 -82l-52 -299h297z" />
    <glyph glyph-name="lslash" unicode="&#x142;" horiz-adv-x="317" 
d="M265 62l1 -58c-21 -10 -46 -14 -66 -14c-65 0 -128 33 -108 150l32 181l-81 -43l13 73l81 44l54 305h73l-46 -262l121 66l-13 -75l-121 -65l-40 -226c-9 -53 10 -84 54 -84c20 0 34 4 46 8z" />
    <glyph glyph-name="copyright" unicode="&#xa9;" horiz-adv-x="835" 
d="M569 252l21 -44c-35 -36 -103 -67 -166 -67c-117 0 -177 83 -177 177c0 118 90 240 238 240c63 0 110 -25 138 -51l-35 -45c-27 23 -67 41 -113 41c-110 0 -168 -91 -168 -180c0 -71 43 -127 115 -127c68 0 115 25 147 56zM748 393c0 149 -93 254 -247 254
c-182 0 -352 -158 -352 -343c0 -147 99 -252 247 -252c185 0 352 163 352 341zM805 400c0 -218 -198 -403 -418 -403c-176 0 -296 128 -296 303c0 210 191 402 420 402c175 0 294 -127 294 -302z" />
    <glyph glyph-name="Oslash" unicode="&#xd8;" horiz-adv-x="776" 
d="M133 0h-86l80 86c-42 49 -63 115 -63 192c0 220 175 434 420 434c71 0 131 -18 178 -50l35 38h88l-76 -81c44 -51 68 -118 68 -197c0 -220 -175 -434 -421 -434c-74 0 -136 19 -184 55zM654 560l-429 -461c37 -27 85 -42 144 -42c181 0 330 169 330 359
c0 59 -16 108 -45 144zM182 144l427 461c-36 24 -82 37 -137 37c-181 0 -330 -168 -330 -358c0 -56 13 -103 40 -140z" />
    <glyph glyph-name="iacute" unicode="&#xed;" horiz-adv-x="232" 
d="M378 730l-154 -147h-64l117 147h101zM122 0h-72l91 517h72z" />
    <glyph glyph-name="igrave" unicode="&#xec;" horiz-adv-x="232" 
d="M222 583h-64l-104 147h102zM122 0h-72l91 517h72z" />
    <glyph glyph-name="icircumflex" unicode="&#xee;" horiz-adv-x="232" 
d="M122 0h-72l91 517h72zM344 583h-68l-68 98l-102 -98h-73l137 145h87z" />
    <glyph glyph-name="idieresis" unicode="&#xef;" horiz-adv-x="232" 
d="M88 597c-26 0 -44 20 -44 45c0 31 30 63 63 63c25 0 44 -21 44 -45c0 -32 -31 -63 -63 -63zM285 597c-26 0 -44 20 -44 45c0 31 30 63 63 63c25 0 44 -21 44 -45c0 -32 -31 -63 -63 -63zM122 0h-72l91 517h72z" />
    <glyph glyph-name="aacute.alt" horiz-adv-x="553" 
d="M454 0h-71l13 76c-59 -54 -133 -86 -203 -86c-85 0 -155 47 -155 140c0 136 126 174 231 174h166l4 27c12 79 -30 135 -123 135c-60 0 -120 -25 -175 -67l-28 56c59 44 135 77 216 77c123 0 205 -83 182 -212zM407 152l17 96h-146c-57 0 -163 -13 -163 -110
c0 -57 44 -84 93 -84c79 0 157 49 199 98zM516 730l-154 -147h-64l117 147h101z" />
    <glyph glyph-name="acircumflex.alt" horiz-adv-x="553" 
d="M454 0h-71l13 76c-59 -54 -133 -86 -203 -86c-85 0 -155 47 -155 140c0 136 126 174 231 174h166l4 27c12 79 -30 135 -123 135c-60 0 -120 -25 -175 -67l-28 56c59 44 135 77 216 77c123 0 205 -83 182 -212zM407 152l17 96h-146c-57 0 -163 -13 -163 -110
c0 -57 44 -84 93 -84c79 0 157 49 199 98zM494 583h-68l-68 98l-102 -98h-73l137 145h87z" />
    <glyph glyph-name="adieresis.alt" horiz-adv-x="553" 
d="M454 0h-71l13 76c-59 -54 -133 -86 -203 -86c-85 0 -155 47 -155 140c0 136 126 174 231 174h166l4 27c12 79 -30 135 -123 135c-60 0 -120 -25 -175 -67l-28 56c59 44 135 77 216 77c123 0 205 -83 182 -212zM407 152l17 96h-146c-57 0 -163 -13 -163 -110
c0 -57 44 -84 93 -84c79 0 157 49 199 98zM238 597c-26 0 -44 20 -44 45c0 31 30 63 63 63c25 0 44 -21 44 -45c0 -32 -31 -63 -63 -63zM435 597c-26 0 -44 20 -44 45c0 31 30 63 63 63c25 0 44 -21 44 -45c0 -32 -31 -63 -63 -63z" />
    <glyph glyph-name="agrave.alt" horiz-adv-x="553" 
d="M454 0h-71l13 76c-59 -54 -133 -86 -203 -86c-85 0 -155 47 -155 140c0 136 126 174 231 174h166l4 27c12 79 -30 135 -123 135c-60 0 -120 -25 -175 -67l-28 56c59 44 135 77 216 77c123 0 205 -83 182 -212zM407 152l17 96h-146c-57 0 -163 -13 -163 -110
c0 -57 44 -84 93 -84c79 0 157 49 199 98zM388 583h-64l-104 147h102z" />
    <glyph glyph-name="aring.alt" horiz-adv-x="553" 
d="M342 612c34 0 70 33 70 71c0 27 -16 48 -44 48c-34 0 -72 -33 -72 -70c0 -28 17 -49 46 -49zM456 690c0 -63 -56 -117 -119 -117c-50 0 -84 35 -84 81c0 59 56 116 119 116c50 0 84 -35 84 -80zM454 0h-71l13 76c-59 -54 -133 -86 -203 -86c-85 0 -155 47 -155 140
c0 136 126 174 231 174h166l4 27c12 79 -30 135 -123 135c-60 0 -120 -25 -175 -67l-28 56c59 44 135 77 216 77c123 0 205 -83 182 -212zM407 152l17 96h-146c-57 0 -163 -13 -163 -110c0 -57 44 -84 93 -84c79 0 157 49 199 98z" />
    <glyph glyph-name="atilde.alt" horiz-adv-x="553" 
d="M454 0h-71l13 76c-59 -54 -133 -86 -203 -86c-85 0 -155 47 -155 140c0 136 126 174 231 174h166l4 27c12 79 -30 135 -123 135c-60 0 -120 -25 -175 -67l-28 56c59 44 135 77 216 77c123 0 205 -83 182 -212zM407 152l17 96h-146c-57 0 -163 -13 -163 -110
c0 -57 44 -84 93 -84c79 0 157 49 199 98zM484 708l47 -25c-30 -57 -71 -89 -120 -89c-57 0 -84 58 -124 58c-28 0 -48 -19 -68 -52l-47 25c31 56 72 89 120 89c57 0 84 -59 124 -59c28 0 49 19 68 53z" />
    <glyph glyph-name="uni00A0" unicode="&#xa0;" horiz-adv-x="267" 
 />
    <glyph glyph-name="CR" unicode="&#xd;" horiz-adv-x="267" 
 />
    <glyph glyph-name="apple" unicode="&#xf8ff;" horiz-adv-x="889" 
d="M680 -23l-168 168c-10 10 -25 26 -39 26c-13 0 -28 -16 -38 -26l-168 -168c-63 39 -115 94 -149 163l146 146c31 31 29 29 72 29h275c43 0 41 1 71 -29l146 -146c-32 -69 -85 -124 -148 -163zM870 315h-151c-35 0 -48 3 -58 14c-11 12 -9 23 -20 51c-10 26 -26 48 -45 66
c-34 32 -77 48 -122 48s-90 -16 -124 -48c-19 -18 -34 -40 -43 -66c-11 -28 -10 -38 -22 -51c-10 -10 -21 -14 -56 -14h-152c0 114 49 220 128 292c76 68 171 105 269 105c97 0 193 -37 267 -105c80 -72 129 -178 129 -292z" />
    <glyph glyph-name="zero.numr" horiz-adv-x="362" 
d="M215 366c67 0 96 66 110 146c14 79 9 147 -58 147c-66 0 -96 -68 -110 -147c-14 -80 -9 -146 58 -146zM209 314c-110 0 -129 93 -110 199c18 106 64 197 174 197s127 -94 109 -200c-19 -106 -63 -196 -173 -196z" />
    <glyph glyph-name="one.numr" horiz-adv-x="232" 
d="M196 324h-57l55 315l-98 -48l10 55l109 54h48z" />
    <glyph glyph-name="two.numr" horiz-adv-x="348" 
d="M333 324h-264l5 33c11 71 76 107 135 138c56 30 108 56 108 111c0 32 -27 49 -61 49c-42 0 -75 -16 -109 -37l-16 45c30 23 80 47 135 47c70 0 112 -41 112 -94c0 -76 -66 -121 -128 -153c-48 -25 -93 -47 -110 -86h202z" />
    <glyph glyph-name="three.numr" horiz-adv-x="346" 
d="M379 664l-129 -122c72 -7 103 -46 103 -92c0 -87 -83 -137 -158 -137c-44 0 -97 19 -123 48l25 47c26 -27 63 -40 100 -40c55 0 95 39 95 79c0 34 -26 54 -82 54h-32l-2 35l113 110h-152l9 54h239z" />
    <glyph glyph-name="four.numr" horiz-adv-x="369" 
d="M312 324h-57l17 97h-187l-5 44l181 258h65l-178 -251h133l21 122h58l-22 -122h56l-9 -51h-56z" />
    <glyph glyph-name="five.numr" horiz-adv-x="355" 
d="M380 648h-170l-25 -89c10 1 29 2 42 2c76 0 139 -28 136 -105c-4 -94 -80 -142 -165 -142c-45 0 -98 15 -131 47l29 43c33 -26 70 -39 108 -39c50 0 100 31 101 85c1 45 -40 61 -95 61c-20 0 -43 -2 -70 -7l-19 23l49 173h219z" />
    <glyph glyph-name="six.numr" horiz-adv-x="368" 
d="M387 704l-16 -50c-17 4 -31 5 -54 5c-72 0 -122 -47 -149 -111c27 16 62 29 99 29c71 0 114 -41 114 -101c0 -97 -81 -162 -163 -162c-92 0 -124 67 -124 137c0 119 84 259 227 259c21 0 49 -2 66 -6zM152 487c-3 -13 -4 -26 -4 -37c0 -65 37 -85 73 -85
c56 0 102 48 103 100c1 40 -23 64 -68 64c-47 0 -91 -31 -104 -42z" />
    <glyph glyph-name="seven.numr" horiz-adv-x="326" 
d="M162 324h-64l211 325h-193l9 51h263l-5 -32z" />
    <glyph glyph-name="eight.numr" horiz-adv-x="364" 
d="M313 522c37 -16 57 -46 57 -78c0 -82 -71 -130 -160 -130c-78 0 -127 37 -127 97c0 52 39 93 92 117c-33 18 -45 44 -45 69c0 72 68 113 144 113c67 0 114 -34 114 -86c0 -32 -19 -75 -75 -102zM240 501c-43 -6 -99 -34 -99 -83c0 -32 24 -55 74 -55c56 0 99 31 99 73
c0 34 -31 59 -74 65zM247 543c41 11 84 34 84 73c0 28 -27 45 -63 45c-33 0 -82 -19 -82 -60c0 -29 27 -48 61 -58z" />
    <glyph glyph-name="nine.numr" horiz-adv-x="368" 
d="M101 320l16 50c17 -4 31 -5 54 -5c72 0 122 47 148 111c-26 -16 -62 -29 -99 -29c-70 0 -113 41 -113 101c0 97 81 162 163 162c92 0 124 -67 124 -137c0 -119 -85 -259 -227 -259c-21 0 -49 2 -66 6zM336 537c2 13 3 26 3 37c0 65 -37 85 -73 85
c-54 0 -102 -48 -102 -100c0 -40 22 -64 67 -64c48 0 92 31 105 42z" />
    <glyph glyph-name="zero.dnom" horiz-adv-x="362" 
d="M159 42c67 0 96 66 110 146c14 79 9 147 -58 147c-66 0 -96 -68 -110 -147c-14 -80 -9 -146 58 -146zM153 -10c-110 0 -129 93 -110 199c18 106 64 197 174 197s127 -94 109 -200c-19 -106 -63 -196 -173 -196z" />
    <glyph glyph-name="one.dnom" horiz-adv-x="232" 
d="M140 0h-57l55 315l-98 -48l10 55l109 54h48z" />
    <glyph glyph-name="two.dnom" horiz-adv-x="348" 
d="M277 0h-264l5 33c11 71 76 107 135 138c56 30 108 56 108 111c0 32 -27 49 -61 49c-42 0 -75 -16 -109 -37l-16 45c30 23 80 47 135 47c70 0 112 -41 112 -94c0 -76 -66 -121 -128 -153c-48 -25 -93 -47 -110 -86h202z" />
    <glyph glyph-name="three.dnom" horiz-adv-x="346" 
d="M322 341l-129 -122c72 -7 103 -46 103 -92c0 -87 -83 -137 -158 -137c-44 0 -97 19 -123 48l25 47c26 -27 63 -40 100 -40c55 0 95 39 95 79c0 34 -26 54 -82 54h-32l-2 35l113 110h-152l9 54h239z" />
    <glyph glyph-name="four.dnom" horiz-adv-x="369" 
d="M256 0h-57l17 97h-187l-5 44l181 258h65l-178 -251h133l21 122h58l-22 -122h56l-9 -51h-56z" />
    <glyph glyph-name="five.dnom" horiz-adv-x="355" 
d="M323 324h-170l-25 -89c10 1 29 2 42 2c76 0 139 -28 136 -105c-4 -94 -80 -142 -165 -142c-45 0 -98 15 -131 47l29 43c33 -26 70 -39 108 -39c50 0 100 31 101 85c1 45 -40 61 -95 61c-20 0 -43 -2 -70 -7l-19 23l49 173h219z" />
    <glyph glyph-name="six.dnom" horiz-adv-x="368" 
d="M331 380l-16 -50c-17 4 -31 5 -54 5c-72 0 -122 -47 -149 -111c27 16 62 29 99 29c71 0 114 -41 114 -101c0 -97 -81 -162 -163 -162c-92 0 -124 67 -124 137c0 119 84 259 227 259c21 0 49 -2 66 -6zM96 163c-3 -13 -4 -26 -4 -37c0 -65 37 -85 73 -85
c56 0 102 48 103 100c1 40 -23 64 -68 64c-47 0 -91 -31 -104 -42z" />
    <glyph glyph-name="seven.dnom" horiz-adv-x="326" 
d="M105 0h-64l211 325h-193l9 51h263l-5 -32z" />
    <glyph glyph-name="eight.dnom" horiz-adv-x="364" 
d="M256 198c37 -16 57 -46 57 -78c0 -82 -71 -130 -160 -130c-78 0 -127 37 -127 97c0 52 39 93 92 117c-33 18 -45 44 -45 69c0 72 68 113 144 113c67 0 114 -34 114 -86c0 -32 -19 -75 -75 -102zM183 177c-43 -6 -99 -34 -99 -83c0 -32 24 -55 74 -55c56 0 99 31 99 73
c0 34 -31 59 -74 65zM190 219c41 11 84 34 84 73c0 28 -27 45 -63 45c-33 0 -82 -19 -82 -60c0 -29 27 -48 61 -58z" />
    <glyph glyph-name="nine.dnom" horiz-adv-x="368" 
d="M45 -3l16 50c17 -4 31 -5 54 -5c72 0 122 47 148 111c-26 -16 -62 -29 -99 -29c-70 0 -113 41 -113 101c0 97 81 162 163 162c92 0 124 -67 124 -137c0 -119 -85 -259 -227 -259c-21 0 -49 2 -66 6zM280 214c2 13 3 26 3 37c0 65 -37 85 -73 85c-54 0 -102 -48 -102 -100
c0 -40 22 -64 67 -64c48 0 92 31 105 42z" />
    <glyph glyph-name="zero.tnum" 
d="M292 55c184 0 238 272 238 425c0 98 -36 167 -128 167c-179 0 -232 -275 -232 -425c0 -98 32 -167 122 -167zM288 -12c-140 0 -192 99 -192 230c0 181 73 494 316 494c138 0 192 -99 192 -229c0 -194 -78 -495 -316 -495z" />
    <glyph glyph-name="one.tnum" 
d="M520 0h-429l12 66h185l97 556l-200 -79l13 73l226 88h49l-113 -638h172z" />
    <glyph glyph-name="two.tnum" 
d="M513 0h-458l12 57c25 129 135 197 260 262c111 59 203 113 203 216c0 58 -47 108 -123 108c-65 0 -131 -29 -190 -73l-33 55c65 50 145 87 229 87c112 0 193 -69 193 -167c0 -148 -136 -221 -244 -281c-96 -53 -197 -106 -216 -196h379z" />
    <glyph glyph-name="three.tnum" 
d="M60 77l38 56c53 -51 122 -77 185 -77c95 0 202 66 202 180c0 57 -42 117 -165 117h-60l-10 45l253 234h-303l13 68h403l-10 -55l-259 -236c2 0 12 -1 23 -2c127 -6 190 -77 190 -163c0 -152 -136 -253 -282 -253c-80 0 -157 28 -218 86z" />
    <glyph glyph-name="four.tnum" 
d="M460 0h-73l31 177h-341l-6 61l342 476h85l-340 -470h272l47 267h73l-48 -267h106l-12 -67h-105z" />
    <glyph glyph-name="five.tnum" 
d="M54 76l39 57c53 -52 122 -79 190 -79c90 0 204 68 204 189c0 88 -81 124 -183 124c-43 0 -86 -5 -127 -13l-25 33l85 313h375l-12 -67h-310l-58 -210c32 5 66 8 94 8c125 0 236 -49 236 -179c0 -149 -128 -264 -282 -264c-96 0 -172 35 -226 88z" />
    <glyph glyph-name="six.tnum" 
d="M591 699l-22 -65c-23 7 -48 12 -89 12c-141 0 -253 -126 -294 -255c46 36 125 69 208 69c111 0 188 -70 188 -179c0 -171 -139 -293 -283 -293c-150 0 -212 116 -212 249c0 211 147 475 396 475c46 0 84 -6 108 -13zM168 308c-6 -31 -8 -58 -8 -78
c0 -127 71 -176 143 -176c114 0 207 106 207 221c0 73 -52 120 -130 120c-105 0 -179 -56 -212 -87z" />
    <glyph glyph-name="seven.tnum" 
d="M206 0h-79l397 633h-364l11 67h449l-5 -39z" />
    <glyph glyph-name="eight.tnum" 
d="M445 369c83 -26 122 -86 122 -153c0 -143 -128 -228 -274 -228c-135 0 -224 61 -224 170c0 87 64 178 185 217c-70 34 -96 87 -96 136c0 123 113 201 247 201c116 0 194 -58 194 -150c0 -63 -38 -144 -154 -193zM345 343c-108 -12 -200 -87 -200 -177
c0 -69 57 -112 149 -112c107 0 198 62 198 157c0 68 -64 122 -147 132zM353 394c83 20 172 71 172 158c0 61 -56 95 -127 95c-84 0 -166 -47 -166 -134c0 -62 56 -100 121 -119z" />
    <glyph glyph-name="nine.tnum" 
d="M111 0l22 66c23 -7 48 -12 90 -12c140 0 253 126 293 255c-46 -36 -125 -69 -208 -69c-111 0 -188 69 -188 179c0 171 139 293 283 293c150 0 213 -117 213 -250c0 -210 -148 -474 -397 -474c-46 0 -83 5 -108 12zM534 392c6 31 8 58 8 78c0 126 -70 176 -143 176
c-114 0 -206 -106 -206 -222c0 -72 51 -119 129 -119c105 0 179 56 212 87z" />
    <glyph glyph-name="NULL" horiz-adv-x="0" 
 />
    <glyph glyph-name="NULL" horiz-adv-x="0" 
 />
    </font>
</defs>
</svg>
